<svg style="position: absolute; width: 0; height: 0;" width="0" height="0" version="1.1" xmlns="http://www.w3.org/2000/svg" xmlns:xlink="http://www.w3.org/1999/xlink"><defs><symbol id="uni-0" viewBox="0 -20 512 512"><path d="M0 0 l0 0 l0 0 l0 0 Z"></path></symbol><symbol id="uni-1" viewBox="0 -20 512 512"><path d="M0 0 l0 0 l0 0 l0 0 Z"></path></symbol><symbol id="uni-32" viewBox="0 -20 512 512"><path d="M0 0 l0 0 l0 0 l0 0 Z"></path></symbol><symbol id="uni-58880" viewBox="0 -20 512 512"><path d="M362 240 q0 -44 -31 -75 q-31 -31 -75 -31 q-44 0 -75 31 q-31 31 -31 75 q0 44 31 75 q31 31 75 31 q44 0 75 -31 q31 -31 31 -75 l0 0 ZM501 496 q2 0 4 -1 q2 -1 4 -2 q3 -3 3 -7.5 q0 -4.5 -3 -7.5 l-491 -491 q-3 -3 -7.5 -3 q-4.5 0 -7.5 3 q-3 3 -3 7.5 q0 4.5 3 7.5 l491 491 q1 1 3 2 q2 1 4 1 l0 0 ZM11 496 q2 0 4 -1 q2 -1 3 -2 l491 -491 q3 -3 3 -7.5 q0 -4.5 -3 -7.5 q-3 -3 -7.5 -3 q-4.5 0 -7.5 3 l-491 491 q-3 3 -3 7.5 q0 4.5 3 7.5 q2 1 4 2 q2 1 4 1 l0 0 ZM150 90 q0 -18 -12 -30 q-12 -12 -30 -12 q-18 0 -30 12 q-12 12 -12 30 q0 18 12 30.5 q12 12.5 30 12.5 q18 0 30 -12.5 q12 -12.5 12 -30.5 l0 0 ZM447 90 q0 -17 -12.5 -29.5 q-12.5 -12.5 -29.5 -12.5 q-18 0 -30.5 12.5 q-12.5 12.5 -12.5 29.5 q0 18 12.5 30.5 q12.5 12.5 30.5 12.5 q17 0 29.5 -12.5 q12.5 -12.5 12.5 -30.5 l0 0 ZM447 387 q0 -17 -12.5 -29.5 q-12.5 -12.5 -29.5 -12.5 q-18 0 -30.5 12.5 q-12.5 12.5 -12.5 29.5 q0 18 12.5 30.5 q12.5 12.5 30.5 12.5 q17 0 29.5 -12.5 q12.5 -12.5 12.5 -30.5 l0 0 ZM150 387 q0 -17 -12 -29.5 q-12 -12.5 -30 -12.5 q-18 0 -30 12.5 q-12 12.5 -12 29.5 q0 18 12 30.5 q12 12.5 30 12.5 q18 0 30 -12.5 q12 -12.5 12 -30.5 l0 0 Z"></path></symbol><symbol id="uni-58881" viewBox="0 -20 512 512"><path d="M249 26 q44 0 83.5 17 q39.5 17 68.5 46 q29 29 46 68 q17 39 17 84 q0 45 -17 84 q-17 39 -46 68 q-29 29 -68.5 46 q-39.5 17 -83.5 17 q-45 0 -84 -17 q-39 -17 -68 -46 q-30 -29 -46.5 -68 q-16.5 -39 -16.5 -84 q0 -45 16.5 -84 q16.5 -39 46.5 -68 q29 -29 68 -46 q39 -17 84 -17 l0 0 ZM127 71 l-23 20 l84 99 l-25 21 l68 8 l5 -69 l-25 21 l-84 -100 l0 0 ZM158 371 l-19 -25 l103 -80 l-19 -24 l-103 80 l-20 -26 l-10 68 l68 7 l0 0 ZM364 416 l24 -18 l-80 -103 l26 -20 l-68 -10 l-7 68 l25 -20 l80 103 l0 0 ZM383 159 l18 27 l14 -67 l-68 -11 l19 26 l-108 74 l17 25 l108 -74 l0 0 Z"></path></symbol><symbol id="uni-58882" viewBox="0 -20 512 512"><path d="M307 417.06 l20 31 l-80 35 l-28 13 q0 -2 4.5 -15.5 q4.5 -13.5 3.5 -13.5 q-22 -17 -44.5 -34.5 q-22.5 -17.5 -37.5 -41.5 q-27 -41 -15.5 -88 q11.5 -47 46.5 -79 q8 -7 17 -13 q9 -6 19 -11 q32 -16 70.5 -15.5 q38.5 0.5 73.5 5.5 q0 7 0 14 q0 7 -2 13 q-19 68 -35 90 q-16 22 -59 37 q-14 -21 -14.5 -39 q-0.5 -18 7.5 -36 q12 -28 52.5 -41.5 q40.5 -13.5 40.5 -13.5 q-25 2 -50.5 6.5 q-25.5 4.5 -41.5 16.5 q-13 10 -23 23.5 q-10 13.5 -14 28.5 q-3 16 0.5 35.5 q3.5 19.5 12.5 34.5 q8 12 17 19 q9 7 15 10 l12 -31 l33 60 l0 0 ZM107 230.06 q-19 25 -26.5 55 q-7.5 30 -0.5 61 q-45 -30 -66.5 -85 q-21.5 -55 -9.5 -116 q8 -40 28.5 -72 q20.5 -32 49.5 -54 q29 -21 63.5 -30 q34.5 -9 70.5 -2 q33 6 59.5 24.5 q26.5 18.5 44.5 44.5 q19 26 28 58.5 q9 32.5 7 68.5 q-23 -8 -48 -15 q-25 -7 -51 -8 q-2 -29 -18 -50.5 q-16 -21.5 -41 -26.5 q-32 -6 -60 17.5 q-28 23.5 -36 63.5 q-3 18 -1.5 34.5 q1.5 16.5 7.5 31.5 l0 0 Z"></path></symbol><symbol id="uni-58883" viewBox="0 -20 512 512"><path d="M543 443 l0 -406 q0 -22 -15.5 -37.5 q-15.5 -15.5 -37.5 -15.5 l-437 0 q-22 0 -37.5 15.5 q-15.5 15.5 -15.5 37.5 l0 406 q0 22 15.5 37.5 q15.5 15.5 37.5 15.5 l437 0 q22 0 37.5 -15.5 q15.5 -15.5 15.5 -37.5 l0 0 ZM500 37 l0 406 q0 4 -3 7 q-3 3 -7 3 l-437 0 q-4 0 -7 -3 q-3 -3 -3 -7 l0 -406 q0 -4 3 -7 q3 -3 7 -3 l437 0 q4 0 7 3 q3 3 3 7 l0 0 ZM171 411 l0 -128 l-86 0 l0 128 l86 0 l0 0 ZM299 411 l0 -299 l-86 0 l0 299 l86 0 l0 0 ZM438 411 l0 -342 l-85 0 l0 342 l85 0 l0 0 Z"></path></symbol><symbol id="uni-58884" viewBox="0 -20 512 512"><path d="M168 241 q10 0 15 5 q5 5 5 15 q0 9 -5 14 q-5 5 -15 5 l-23 0 l0 -39 l23 0 l0 0 ZM348 194 q12 0 18 6.5 q6 6.5 6 17.5 q0 11 -5.5 16.5 q-5.5 5.5 -18.5 5.5 l-17 0 l0 -46 l17 0 l0 0 ZM186 211 q0 8 -4.5 12.5 q-4.5 4.5 -13.5 4.5 l-23 0 l0 -35 l22 0 q9 0 14 5 q5 5 5 13 l0 0 ZM461 396 q20 1 34.5 16 q14.5 15 13.5 35 q0 21 -15 35.5 q-15 14.5 -36 13.5 q-21 -1 -35 -16 q-14 -15 -14 -35 q1 -9 3.5 -16.5 q2.5 -7.5 7.5 -13.5 l-49 -49 q-22 20 -50.5 31 q-28.5 11 -61.5 11 q-34 0 -64.5 -13 q-30.5 -13 -53.5 -35 l-53 54 q5 6 8.5 15 q3.5 9 3.5 18 q-1 21 -16 35.5 q-15 14.5 -35 13.5 q-21 -1 -35.5 -16 q-14.5 -15 -13.5 -35 q1 -21 16 -35 q15 -14 35 -14 q7 0 13.5 2.5 q6.5 2.5 12.5 5.5 l54 -54 q-19 -23 -30.5 -51.5 q-11.5 -28.5 -11.5 -60.5 q0 -32 11 -61 q11 -29 31 -51 l-52 -52 q-6 5 -14 7.5 q-8 2.5 -16 2.5 q-21 -1 -35.5 -16 q-14.5 -15 -13.5 -35 q1 -21 16 -35.5 q15 -14.5 35 -13.5 q21 1 35 16 q14 15 14 35 q0 8 -3 15.5 q-3 7.5 -8 13.5 l52 52 q23 -23 53.5 -36 q30.5 -13 64.5 -13 q33 0 61.5 11.5 q28.5 11.5 51.5 31.5 l47 -48 q-4 -6 -6.5 -13.5 q-2.5 -7.5 -2.5 -15.5 q1 -21 16 -35.5 q15 -14.5 36 -13.5 q20 1 34.5 16 q14.5 15 13.5 35 q0 21 -15 35 q-15 14 -36 14 q-9 0 -16.5 -3.5 q-7.5 -3.5 -13.5 -8.5 l-47 47 q22 23 35 53.5 q13 30.5 13 65.5 q0 34 -13 65 q-13 31 -35 54 l49 48 q6 -4 13.5 -6.5 q7.5 -2.5 16.5 -2.5 l0 0 ZM166 293 q18 0 27.5 -8.5 q9.5 -8.5 9.5 -23.5 q0 -11 -5.5 -18.5 q-5.5 -7.5 -13.5 -8.5 q7 -2 11.5 -8.5 q4.5 -6.5 4.5 -14.5 q0 -14 -8.5 -22 q-8.5 -8 -25.5 -8 l-34 0 l0 112 l34 0 l0 0 ZM298 293 l0 -60 l-40 0 l0 13 l28 0 l0 8 q0 13 -8 20.5 q-8 7.5 -19 7.5 q-12 0 -21.5 -11 q-9.5 -11 -9.5 -34 q0 -23 9 -34 q9 -11 22 -11 q10 0 17 6 q7 6 9 16 l13 0 q-1 -15 -12 -25 q-11 -10 -27 -10 q-19 0 -31.5 14.5 q-12.5 14.5 -12.5 43.5 q0 28 12 43 q12 15 30 15 q10 0 17.5 -4 q7.5 -4 12.5 -11 l2 13 l9 0 l0 0 ZM348 253 q19 0 28.5 -9 q9.5 -9 9.5 -26 q0 -18 -10 -27.5 q-10 -9.5 -28 -9.5 l-31 0 l0 112 l14 0 l0 -40 l17 0 l0 0 Z"></path></symbol><symbol id="uni-58885" viewBox="0 -20 512 512"><path d="M178 317 l4 -14 l15 -51 l20 65 l-39 0 ZM556 -2 l-68 60 q6 8 9 18 q3 10 3 21 q0 29 -20 49 q-20 20 -48 20 q-13 0 -25 -5 q-12 -5 -21 -14 l-33 28 q20 26 31.5 57 q11.5 31 11.5 66 q0 1 0 2 q0 1 0 3 l-131 0 l-37 -97 l-60 0 l-37 97 l-131 0 q0 -2 0 -3 q0 -1 0 -2 q0 -41 15.5 -77 q15.5 -36 42.5 -63 q27 -27 63 -42.5 q36 -15.5 77 -15.5 q42 0 79 16.5 q37 16.5 64 44.5 l33 -29 q-5 -7 -7.5 -16 q-2.5 -9 -2.5 -19 q0 -28 20 -48 q20 -20 48 -20 q12 0 23 4 q11 4 20 11 l69 -60 l12 14 l0 0 ZM296 385 l-28 -73 l127 0 q-2 39 -18.5 72.5 q-16.5 33.5 -43.5 58.5 q-26 24 -61 38.5 q-35 14.5 -74 14.5 q-39 0 -74 -14.5 q-35 -14.5 -61 -38.5 q-27 -25 -43.5 -58.5 q-16.5 -33.5 -18.5 -72.5 l127 0 l-28 73 l57 0 l9 -29 l63 0 l9 29 l58 0 l0 0 Z"></path></symbol><symbol id="uni-58886" viewBox="0 -20 512 512"><path d="M0 -16 l512 0 l0 512 l-512 0 l0 -512 l0 0 ZM386 254 l0 -35 l-239 0 l0 35 l239 0 l0 0 Z"></path></symbol><symbol id="uni-58887" viewBox="0 -20 512 512"><path d="M0 -16 l512 0 l0 512 l-512 0 l0 -512 l0 0 ZM362 257 l0 -34 l-89 0 l0 -89 l-34 0 l0 89 l-89 0 l0 34 l89 0 l0 89 l34 0 l0 -89 l89 0 l0 0 Z"></path></symbol><symbol id="uni-58888" viewBox="0 -20 512 512"><path d="M462 472 l0 -21 l-42 0 l0 21 l42 0 l0 0 ZM378 472 l0 -21 l-42 0 l0 21 l42 0 l0 0 ZM293 472 l0 -21 l-42 0 l0 21 l42 0 l0 0 ZM209 472 l0 -21 l-42 0 l0 21 l42 0 l0 0 ZM125 472 l0 -21 l-10 0 l0 -11 l-21 0 l0 32 l31 0 l0 0 ZM481 428 l0 -42 l-21 0 l0 42 l21 0 l0 0 ZM115 397 l0 -42 l-21 0 l0 42 l21 0 l0 0 ZM481 344 l0 -43 l-21 0 l0 43 l21 0 l0 0 ZM115 313 l0 -42 l-21 0 l0 42 l21 0 l0 0 ZM481 259 l0 -42 l-21 0 l0 42 l21 0 l0 0 ZM481 175 l0 -43 l-21 0 l0 43 l21 0 l0 0 ZM465 106 l0 -21 l-42 0 l0 21 l42 0 l0 0 ZM381 106 l0 -21 l-42 0 l0 21 l42 0 l0 0 ZM297 106 l0 -21 l-43 0 l0 21 l43 0 l0 0 ZM221 154 l0 0 q0 -6 -4 -10.5 q-4 -4.5 -10 -4.5 l-88 0 q-6 0 -10.5 4.5 q-4.5 4.5 -4.5 10.5 l0 0 q0 6 4.5 10.5 q4.5 4.5 10.5 4.5 l88 0 q6 0 10 -4.5 q4 -4.5 4 -10.5 l0 0 ZM163 95 l0 0 q-6 0 -10.5 4.5 q-4.5 4.5 -4.5 10.5 l0 88 q0 6 4.5 10.5 q4.5 4.5 10.5 4.5 l0 0 q6 0 10 -4.5 q4 -4.5 4 -10.5 l0 -88 q0 -6 -4 -10.5 q-4 -4.5 -10 -4.5 l0 0 ZM345 295 q9 9 9 21 q0 12 -9 20 q-4 5 -9.5 7 q-5.5 2 -11.5 2 q-5 0 -10.5 -2 q-5.5 -2 -10.5 -7 l-70 -70 q-15 10 -33 15 q-18 5 -37 5 q-55 0 -93.5 -38.5 q-38.5 -38.5 -38.5 -93.5 q0 -55 38.5 -93.5 q38.5 -38.5 93.5 -38.5 q55 0 93.5 38.5 q38.5 38.5 38.5 93.5 q0 20 -5.5 37.5 q-5.5 17.5 -15.5 32.5 l71 71 l0 0 ZM75 154 q0 37 25.5 62.5 q25.5 25.5 62.5 25.5 q36 0 62 -25.5 q26 -25.5 26 -62.5 q0 -36 -26 -62 q-26 -26 -62 -26 q-37 0 -62.5 26 q-25.5 26 -25.5 62 l0 0 Z"></path></symbol><symbol id="uni-58889" viewBox="0 -20 512 512"><path d="M456 270 l0 -59 q0 -3 -2 -6 q-2 -3 -5 -4 l-49 -7 q-2 -7 -5 -13.5 q-3 -6.5 -6 -12.5 q7 -10 14 -19 q7 -9 14 -18 q1 -1 1.5 -2.5 q0.5 -1.5 0.5 -3.5 q0 -2 -0.5 -3.5 q-0.5 -1.5 -1.5 -2.5 q-8 -12 -20.5 -23.5 q-12.5 -11.5 -23.5 -21.5 q-1 -1 -3 -2 q-2 -1 -3 -1 q-2 0 -4 0.5 q-2 0.5 -3 2.5 l-38 28 q-5 -3 -11 -5.5 q-6 -2.5 -13 -4.5 l-7 -49 q-1 -3 -3.5 -5.5 q-2.5 -2.5 -6.5 -2.5 l-59 0 q-4 0 -6.5 2 q-2.5 2 -3.5 6 q-3 12 -4.5 24.5 q-1.5 12.5 -2.5 24.5 q-6 2 -12.5 4.5 q-6.5 2.5 -12.5 5.5 l-36 -28 q-2 -1 -3.5 -2 q-1.5 -1 -3.5 -1 q-7 0 -27 20.5 q-20 20.5 -25 27.5 q-1 1 -1.5 2.5 q-0.5 1.5 -0.5 3.5 q0 2 0.5 3.5 q0.5 1.5 2.5 2.5 q7 9 14 18.5 q7 9.5 14 18.5 q-3 6 -5.5 12 q-2.5 6 -4.5 13 l-50 7 q-3 1 -5 4 q-2 3 -2 6 l0 59 q0 3 2 6 q2 3 6 4 l48 7 q2 7 5 13.5 q3 6.5 6 12.5 q-6 10 -13.5 19 q-7.5 9 -14.5 18 q-1 1 -1.5 2.5 q-0.5 1.5 -0.5 3.5 q0 2 0.5 3.5 q0.5 1.5 1.5 2.5 q8 12 20.5 23.5 q12.5 11.5 23.5 21.5 q1 1 3 2 q2 1 4 1 q2 0 3.5 -0.5 q1.5 -0.5 2.5 -2.5 l38 -28 q6 3 12 5.5 q6 2.5 12 4.5 l7 49 q1 3 3.5 5.5 q2.5 2.5 6.5 2.5 l59 0 q4 0 6.5 -2 q2.5 -2 3.5 -6 q3 -12 4.5 -24.5 q1.5 -12.5 3.5 -24.5 q6 -2 12 -4.5 q6 -2.5 12 -5.5 l37 28 q1 1 3 2 q2 1 4 1 q6 0 26 -21 q20 -21 25 -27 q1 -1 1.5 -2.5 q0.5 -1.5 0.5 -3.5 q0 -2 -0.5 -3.5 q-0.5 -1.5 -1.5 -3.5 q-8 -9 -15 -18 q-7 -9 -14 -19 q3 -5 5.5 -11 q2.5 -6 5.5 -13 l49 -7 q3 -1 5 -4 q2 -3 2 -6 l0 0 ZM252 172 q28 0 48 20 q20 20 20 48 q0 28 -20 48 q-20 20 -48 20 q-29 0 -49 -20 q-20 -20 -20 -48 q0 -28 20 -48 q20 -20 49 -20 l0 0 Z"></path></symbol><symbol id="uni-58890" viewBox="0 -20 512 512"><path d="M422 424 l0 -16 l-33 0 l0 16 l33 0 l0 0 ZM356 424 l0 -16 l-33 0 l0 16 l33 0 l0 0 ZM290 424 l0 -16 l-33 0 l0 16 l33 0 l0 0 ZM224 424 l0 -16 l-33 0 l0 16 l33 0 l0 0 ZM182 401 l0 -33 l-17 0 l0 33 l17 0 l0 0 ZM440 393 l0 -33 l-16 0 l0 33 l16 0 l0 0 ZM182 335 l0 -33 l-17 0 l0 33 l17 0 l0 0 ZM440 327 l0 -33 l-16 0 l0 33 l16 0 l0 0 ZM182 269 l0 -33 l-17 0 l0 33 l17 0 l0 0 ZM440 261 l0 -33 l-16 0 l0 33 l16 0 l0 0 ZM440 195 l0 -33 l-16 0 l0 33 l16 0 l0 0 ZM404 164 l0 -16 l-33 0 l0 16 l33 0 l0 0 ZM338 164 l0 -16 l-33 0 l0 16 l33 0 l0 0 ZM272 164 l0 -16 l-33 0 l0 16 l33 0 l0 0 ZM165 149 l31 88 q-7 3 -15 4.5 q-8 1.5 -16 1.5 q-39 0 -66 -27.5 q-27 -27.5 -27 -66.5 q0 -39 27 -66 q27 -27 66 -27 q39 0 66.5 27.5 q27.5 27.5 27.5 65.5 q0 14 -4 27 q-4 13 -11 24 l-79 -51 l0 0 ZM263 296 l-19 49 l-60 -172 l153 98 l-52 7 l59 84 l-14 11 l-67 -77 l0 0 Z"></path></symbol><symbol id="uni-58891" viewBox="0 -20 512 512"><path d="M446 330 q7 -13 3.5 -27 q-3.5 -14 -16.5 -21 l-73 -42 l73 -43 q13 -7 16.5 -21 q3.5 -14 -3.5 -27 l-17 -30 q-8 -13 -22 -16.5 q-14 -3.5 -27 3.5 l-73 42 l0 -84 q0 -15 -10 -25 q-10 -10 -25 -10 l-35 0 q-14 0 -24.5 10 q-10.5 10 -10.5 25 l0 84 l-73 -42 q-13 -7 -27 -3.5 q-14 3.5 -21 16.5 l-18 30 q-7 13 -3 27 q4 14 16 21 l73 43 l-73 42 q-12 7 -16 21 q-4 14 3 27 l18 30 q7 13 21 16.5 q14 3.5 27 -3.5 l73 -42 l0 84 q0 15 10.5 25.5 q10.5 10.5 24.5 10.5 l35 0 q15 0 25 -10.5 q10 -10.5 10 -25.5 l0 -84 l74 42 q12 7 26 3.5 q14 -3.5 22 -16.5 l17 -30 l0 0 Z"></path></symbol><symbol id="uni-58892" viewBox="0 -20 512 512"><path d="M83 302.36 q12 -15 29.5 -23.5 q17.5 -8.5 37.5 -8.5 q-10 -14 -15.5 -30.5 q-5.5 -16.5 -5.5 -34.5 q0 -4 0.5 -8 q0.5 -4 0.5 -8 q-8 2 -16 3.5 q-8 1.5 -17 1.5 q-26 0 -44 -10.5 q-18 -10.5 -22 -10.5 q-24 0 -27.5 37 q-3.5 37 -3.5 52 q0 21 15 30.5 q15 9.5 34 9.5 l34 0 l0 0 ZM97 173.36 q27 0 45.5 -19 q18.5 -19 18.5 -46 q0 -26 -18.5 -45 q-18.5 -19 -45.5 -19 q-27 0 -46 19 q-19 19 -19 45 q0 27 19 46 q19 19 46 19 l0 0 ZM353 496.36 q30 0 48.5 -17.5 q18.5 -17.5 18.5 -47.5 q0 -43 -16 -94 q-16 -51 -71 -51 q-7 0 -30 17.5 q-23 17.5 -61 17.5 q-38 0 -61 -17.5 q-23 -17.5 -29 -17.5 q-56 0 -71.5 51 q-15.5 51 -15.5 94 q0 30 18.5 47.5 q18.5 17.5 48.5 17.5 l221 0 l0 0 ZM242 302.36 q40 0 68.5 -28.5 q28.5 -28.5 28.5 -68.5 q0 -40 -28.5 -68.5 q-28.5 -28.5 -68.5 -28.5 q-40 0 -68.5 28.5 q-28.5 28.5 -28.5 68.5 q0 40 28.5 68.5 q28.5 28.5 68.5 28.5 l0 0 ZM479 205.36 q20 -4 37 8.5 q17 12.5 20 32.5 q3 21 -9 38 q-12 17 -32 20 q-21 3 -38 -9 q-17 -12 -20 -33 q-2 -12 2 -23.5 q4 -11.5 13 -20.5 l-134 -168 q-3 2 -6.5 3.5 q-3.5 1.5 -7.5 2.5 q-15 2 -27 -6.5 q-12 -8.5 -14 -23.5 q-3 -15 6 -27 q9 -12 24 -15 q14 -2 26.5 7 q12.5 9 14.5 23 q1 8 -1 15.5 q-2 7.5 -7 13.5 l135 169 q4 -3 8.5 -4.5 q4.5 -1.5 9.5 -2.5 l0 0 Z"></path></symbol><symbol id="uni-58893" viewBox="0 -20 512 512"><path d="M162 179 l0 99 l188 0 l0 -99 l-188 0 l0 0 ZM429 348 l0 -234 l-346 0 l0 234 l346 0 l0 0 ZM105 327 l0 -192 l302 0 l0 192 l-302 0 l0 0 ZM53 83 l88 0 l0 -21 l-110 0 l0 97 l22 0 l0 -76 ZM481 62 l-110 0 l0 21 l88 0 l0 76 l22 0 l0 -97 ZM141 379 l-88 0 l0 -76 l-22 0 l0 97 l110 0 l0 -21 ZM481 303 l-22 0 l0 76 l-88 0 l0 21 l110 0 l0 -97 Z"></path></symbol><symbol id="uni-58894" viewBox="0 -20 512 512"><path d="M484 246 q0 -36 -25 -61 q-25 -25 -61 -25 q-35 0 -60 25 q-25 25 -25 61 q0 35 25 60 q25 25 60 25 q36 0 61 -25 q25 -25 25 -60 l0 0 ZM179 329 l119 -83 l-119 -84 l0 167 ZM200 296 l-21 0 l0 85 l-100 0 l0 22 l121 0 l0 -107 ZM200 89 l-121 0 l0 21 l100 0 l0 86 l21 0 l0 -107 ZM140 99 q0 -22 -15.5 -37.5 q-15.5 -15.5 -38.5 -15.5 q-22 0 -37.5 15.5 q-15.5 15.5 -15.5 37.5 q0 22 15.5 38 q15.5 16 37.5 16 q23 0 38.5 -16 q15.5 -16 15.5 -38 l0 0 ZM140 392 q0 -22 -15.5 -37.5 q-15.5 -15.5 -38.5 -15.5 q-22 0 -37.5 15.5 q-15.5 15.5 -15.5 37.5 q0 22 15.5 37.5 q15.5 15.5 37.5 15.5 q23 0 38.5 -15.5 q15.5 -15.5 15.5 -37.5 l0 0 Z"></path></symbol><symbol id="uni-58895" viewBox="0 -20 512 512"><path d="M479 496 q12 0 21 -9 q9 -9 9 -21 l0 -155 q0 -12 -9 -21 q-9 -9 -21 -9 l-154 0 q-13 0 -21.5 9 q-8.5 9 -8.5 21 l0 155 q0 12 8.5 21 q8.5 9 21.5 9 l154 0 l0 0 ZM325 288 l154 0 q9 0 16 6.5 q7 6.5 7 16.5 l0 155 q0 10 -7 16.5 q-7 6.5 -16 6.5 l-154 0 q-10 0 -17 -6.5 q-7 -6.5 -7 -16.5 l0 -155 q0 -10 7 -16.5 q7 -6.5 17 -6.5 l0 0 ZM474 398 q-1 -1 -2 -0.5 q-1 0.5 -2 1.5 q-4 10 -12 28 q-8 18 -18 18 q0 0 0 0 q0 0 0 0 q-6 0 -14.5 -10 q-8.5 -10 -18.5 -44 q-9 -30 -18.5 -44.5 q-9.5 -14.5 -19.5 -14.5 q-17 1 -27 27.5 q-10 26.5 -11 31.5 q0 1 0.5 2 q0.5 1 1.5 2 q1 0 2 -0.5 q1 -0.5 2 -2.5 q2 -11 11 -32 q9 -21 21 -21 q0 0 0 0 q0 0 0 0 q6 0 14.5 10 q8.5 10 18.5 44 q9 30 18.5 44.5 q9.5 14.5 19.5 14.5 q0 0 0 0 q0 0 1 0 q13 -1 21.5 -20.5 q8.5 -19.5 12.5 -29.5 q1 -1 0.5 -2 q-0.5 -1 -1.5 -2 l0 0 ZM479 405 q3 -1 4.5 -4 q1.5 -3 0.5 -6 q-1 -4 -14 -34.5 q-13 -30.5 -29 -30.5 q0 0 -0.5 0 q-0.5 0 -0.5 0 q-12 0 -23 15.5 q-11 15.5 -21 47.5 q-10 36 -18 43 q-8 7 -9 7 q-7 0 -15 -17 q-8 -17 -12 -32 q-1 -4 -4 -6 q-3 -2 -7 -1 q-3 1 -5 4.5 q-2 3.5 -1 7.5 q2 8 13 35.5 q11 27.5 30 27.5 q1 0 1 0.5 q0 0.5 0 0.5 q13 0 23.5 -15.5 q10.5 -15.5 20.5 -48.5 q11 -36 18.5 -43 q7.5 -7 8.5 -7 q7 0 16 21.5 q9 21.5 11 27.5 q1 5 4.5 7 q3.5 2 7.5 0 l0 0 ZM425 -16 q11 0 19 8 q8 8 8 19 l0 273 l-127 0 q-11 0 -19 8 q-8 8 -8 19 l0 127 l-271 0 q-11 0 -19 -8 q-8 -8 -8 -19 l0 -400 q0 -11 8 -19 q8 -8 19 -8 l398 0 l0 0 ZM158 346 l0 -58 q0 -1 -0.5 -1.5 q-0.5 -0.5 -0.5 -1.5 q0 -2 -0.5 -3.5 q-0.5 -1.5 -2.5 -3.5 l-1 -1 q-2 -2 -4 -2.5 q-2 -0.5 -4 -0.5 q-1 0 -1 0 q0 0 0 0 l-58 0 q-5 0 -7.5 3 q-2.5 3 -2.5 7 l0 2 q0 4 3 7 q3 3 7 3 l33 0 l-82 82 q-3 3 -3 7.5 q0 4.5 3 7.5 l2 1 q3 3 7 3 q4 0 7 -3 l82 -82 l0 34 q0 4 3 7 q3 3 7 3 l3 0 q4 0 7 -3 q3 -3 3 -7 l0 0 ZM289 314 q3 -3 3 -7 q0 -4 -3 -7 l-41 -41 q0 0 -0.5 -0.5 q-0.5 -0.5 -1.5 -1.5 q-1 -1 -3 -1.5 q-2 -0.5 -4 -0.5 l-2 0 q-2 0 -4 1 q-2 1 -4 2 q0 1 0 1 q0 0 0 0 l-41 41 q-3 3 -3 7 q0 4 3 7 l1 2 q3 3 7 3 q4 0 7 -3 l24 -24 l0 116 q0 4 3 7 q3 3 7 3 l2 0 q5 0 8 -3 q3 -3 3 -7 l0 -116 l24 24 q3 3 7 3 q4 0 7 -3 l1 -2 l0 0 ZM303 84 q3 -4 3 -9 q0 -5 -3 -9 l-51 -50 q0 -1 -1 -1.5 q-1 -0.5 -1 -0.5 q-2 -2 -4 -3 q-2 -1 -5 -1 l-2 0 q-3 0 -5.5 1.5 q-2.5 1.5 -4.5 3.5 q0 0 -0.5 0 q-0.5 0 -0.5 1 l-50 50 q-4 4 -4 9 q0 5 4 9 l2 1 q3 4 8.5 4 q5.5 0 8.5 -4 l29 -29 l0 143 q0 5 4 8.5 q4 3.5 9 3.5 l2 0 q6 0 9.5 -3.5 q3.5 -3.5 3.5 -8.5 l0 -143 l29 29 q4 4 9 4 q5 0 9 -4 l2 -1 l0 0 Z"></path></symbol><symbol id="uni-58896" viewBox="0 -20 512 512"><path d="M482 286 q11 0 19 8 q8 8 8 19 l0 156 q0 11 -8 19 q-8 8 -19 8 l-155 0 q-11 0 -19 -8 q-8 -8 -8 -19 l0 -28 l-273 0 q-11 0 -19 -8 q-8 -8 -8 -19 l0 -403 q0 -11 8 -19 q8 -8 19 -8 l401 0 q11 0 19 8 q8 8 8 19 l0 275 l27 0 l0 0 Z"></path></symbol><symbol id="uni-58897" viewBox="0 -20 512 512"><path d="M512 240 q0 -53 -20 -99.5 q-20 -46.5 -55 -81.5 q-35 -35 -81.5 -55 q-46.5 -20 -99.5 -20 q-53 0 -99.5 20 q-46.5 20 -81.5 55 q-35 35 -55 81.5 q-20 46.5 -20 99.5 q0 53 20 99.5 q20 46.5 55 81.5 q35 35 81.5 55 q46.5 20 99.5 20 q53 0 99.5 -20 q46.5 -20 81.5 -55 q35 -35 55 -81.5 q20 -46.5 20 -99.5 l0 0 Z"></path></symbol><symbol id="uni-58898" viewBox="0 -20 512 512"><path d="M256 -16 q53 0 99.5 20 q46.5 20 81.5 55 q35 35 55 81.5 q20 46.5 20 99.5 q0 53 -20 99.5 q-20 46.5 -55 81.5 q-35 35 -81.5 55 q-46.5 20 -99.5 20 q-53 0 -99.5 -20 q-46.5 -20 -81.5 -55 q-35 -35 -55 -81.5 q-20 -46.5 -20 -99.5 q0 -53 20 -99.5 q20 -46.5 55 -81.5 q35 -35 81.5 -55 q46.5 -20 99.5 -20 l0 0 ZM257 399 q15 0 25.5 -10.5 q10.5 -10.5 10.5 -25.5 q0 -15 -10.5 -25.5 q-10.5 -10.5 -25.5 -10.5 q-15 0 -25.5 10.5 q-10.5 10.5 -10.5 25.5 q0 15 10.5 25.5 q10.5 10.5 25.5 10.5 l0 0 ZM305 232 q11 -11 25 -28.5 q14 -17.5 14 -45.5 q0 -18 -6.5 -34 q-6.5 -16 -18.5 -28 q-12 -11 -28 -17.5 q-16 -6.5 -34 -6.5 q-27 0 -44.5 14 q-17.5 14 -26.5 29 q-8 15 -11.5 26.5 q-3.5 11.5 -3.5 12.5 q-2 9 3.5 17.5 q5.5 8.5 15.5 9.5 q9 2 17.5 -3.5 q8.5 -5.5 9.5 -14.5 l0 0 q0 0 0 -0.5 q0 -0.5 1 -1.5 q0 -3 3 -11 q3 -8 9 -15 q5 -7 11 -11 q6 -4 16 -5 q18 1 28.5 11 q10.5 10 10.5 28 q0 12 -6 20.5 q-6 8.5 -18 19.5 q-11 11 -24.5 27.5 q-13.5 16.5 -14.5 42.5 q0 3 0 4 q0 1 1 1 q0 0 0 0.5 q0 0.5 0 0.5 q0 4 1.5 8.5 q1.5 4.5 4.5 7.5 q4 4 8 5.5 q4 1.5 9 1.5 q5 0 9 -1.5 q4 -1.5 8 -5.5 q3 -3 5 -7.5 q2 -4.5 2 -8.5 q0 0 0 -1 q0 -1 0 -5 q0 -8 5.5 -16 q5.5 -8 18.5 -20 l0 0 Z"></path></symbol><symbol id="uni-58899" viewBox="0 -20 512 512"><path d="M386 261 l0 -35 l-239 0 l0 35 l239 0 l0 0 Z"></path></symbol><symbol id="uni-58900" viewBox="0 -20 512 512"><path d="M362 257 l0 -34 l-89 0 l0 -89 l-34 0 l0 89 l-89 0 l0 34 l89 0 l0 89 l34 0 l0 -89 l89 0 l0 0 Z"></path></symbol><symbol id="uni-58901" viewBox="0 -20 512 512"><path d="M546 240 l-46 0 l0 256 l-140 0 l0 -186 l-139 0 l0 186 l-140 0 l0 -256 l-47 0 l256 -256 l94 93 l0 -70 l93 0 l0 163 l69 70 Z"></path></symbol><symbol id="uni-58902" viewBox="0 -20 512 512"><path d="M141 -16 l299 0 l0 512 l-107 0 l0 -85 l-85 0 l0 85 l-107 0 l0 -512 l0 0 ZM269 27 l0 64 l43 0 l0 -64 l-43 0 l0 0 ZM269 112 l0 64 l43 0 l0 -64 l-43 0 l0 0 ZM269 197 l0 64 l43 0 l0 -64 l-43 0 l0 0 ZM269 283 l0 64 l43 0 l0 -64 l-43 0 l0 0 ZM184 27 l0 64 l42 0 l0 -64 l-42 0 l0 0 ZM184 112 l0 64 l42 0 l0 -64 l-42 0 l0 0 ZM184 197 l0 64 l42 0 l0 -64 l-42 0 l0 0 ZM184 283 l0 64 l42 0 l0 -64 l-42 0 l0 0 ZM397 347 l0 -64 l-43 0 l0 64 l43 0 l0 0 ZM397 261 l0 -64 l-43 0 l0 64 l43 0 l0 0 ZM397 176 l0 -64 l-43 0 l0 64 l43 0 l0 0 ZM397 91 l0 -64 l-43 0 l0 64 l43 0 l0 0 Z"></path></symbol><symbol id="uni-58903" viewBox="0 -20 512 512"><path d="M148 79 l19 0 l0 417 l-95 0 l0 -417 l19 0 l0 -38 l57 0 l0 38 l0 0 ZM110 458 l0 -19 l-19 0 l0 19 l19 0 l0 0 ZM110 420 l0 -19 l-19 0 l0 19 l19 0 l0 0 ZM110 382 l0 -19 l-19 0 l0 19 l19 0 l0 0 ZM110 344 l0 -19 l-19 0 l0 19 l19 0 l0 0 ZM110 306 l0 -19 l-19 0 l0 19 l19 0 l0 0 ZM110 268 l0 -19 l-19 0 l0 19 l19 0 l0 0 ZM110 231 l0 -19 l-19 0 l0 19 l19 0 l0 0 ZM110 193 l0 -19 l-19 0 l0 19 l19 0 l0 0 ZM110 155 l0 -19 l-19 0 l0 19 l19 0 l0 0 ZM148 458 l0 -19 l-19 0 l0 19 l19 0 l0 0 ZM148 420 l0 -19 l-19 0 l0 19 l19 0 l0 0 ZM148 382 l0 -19 l-19 0 l0 19 l19 0 l0 0 ZM148 344 l0 -19 l-19 0 l0 19 l19 0 l0 0 ZM148 306 l0 -19 l-19 0 l0 19 l19 0 l0 0 ZM148 268 l0 -19 l-19 0 l0 19 l19 0 l0 0 ZM148 231 l0 -19 l-19 0 l0 19 l19 0 l0 0 ZM148 193 l0 -19 l-19 0 l0 19 l19 0 l0 0 ZM148 155 l0 -19 l-19 0 l0 19 l19 0 l0 0 ZM300 41 l95 -57 l0 512 l-95 0 l0 -455 l0 0 ZM338 458 l0 -19 l-19 0 l0 19 l19 0 l0 0 ZM338 420 l0 -19 l-19 0 l0 19 l19 0 l0 0 ZM338 382 l0 -19 l-19 0 l0 19 l19 0 l0 0 ZM338 344 l0 -19 l-19 0 l0 19 l19 0 l0 0 ZM338 306 l0 -19 l-19 0 l0 19 l19 0 l0 0 ZM338 268 l0 -19 l-19 0 l0 19 l19 0 l0 0 ZM338 231 l0 -19 l-19 0 l0 19 l19 0 l0 0 ZM338 193 l0 -19 l-19 0 l0 19 l19 0 l0 0 ZM338 155 l0 -19 l-19 0 l0 19 l19 0 l0 0 ZM338 117 l0 -19 l-19 0 l0 19 l19 0 l0 0 ZM338 79 l0 -19 l-19 0 l0 19 l19 0 l0 0 ZM376 458 l0 -19 l-19 0 l0 19 l19 0 l0 0 ZM376 420 l0 -19 l-19 0 l0 19 l19 0 l0 0 ZM376 382 l0 -19 l-19 0 l0 19 l19 0 l0 0 ZM376 344 l0 -19 l-19 0 l0 19 l19 0 l0 0 ZM376 306 l0 -19 l-19 0 l0 19 l19 0 l0 0 ZM376 268 l0 -19 l-19 0 l0 19 l19 0 l0 0 ZM376 231 l0 -19 l-19 0 l0 19 l19 0 l0 0 ZM376 193 l0 -19 l-19 0 l0 19 l19 0 l0 0 ZM376 155 l0 -19 l-19 0 l0 19 l19 0 l0 0 ZM376 117 l0 -19 l-19 0 l0 19 l19 0 l0 0 ZM376 79 l0 -19 l-19 0 l0 19 l19 0 l0 0 ZM186 136 l95 0 l0 360 l-95 0 l0 -360 l0 0 ZM224 439 l0 -19 l-19 0 l0 19 l19 0 l0 0 ZM224 401 l0 -19 l-19 0 l0 19 l19 0 l0 0 ZM224 363 l0 -19 l-19 0 l0 19 l19 0 l0 0 ZM224 325 l0 -19 l-19 0 l0 19 l19 0 l0 0 ZM224 287 l0 -19 l-19 0 l0 19 l19 0 l0 0 ZM224 249 l0 -18 l-19 0 l0 18 l19 0 l0 0 ZM224 212 l0 -19 l-19 0 l0 19 l19 0 l0 0 ZM224 174 l0 -19 l-19 0 l0 19 l19 0 l0 0 ZM262 439 l0 -19 l-19 0 l0 19 l19 0 l0 0 ZM262 401 l0 -19 l-19 0 l0 19 l19 0 l0 0 ZM262 363 l0 -19 l-19 0 l0 19 l19 0 l0 0 ZM262 325 l0 -19 l-19 0 l0 19 l19 0 l0 0 ZM262 287 l0 -19 l-19 0 l0 19 l19 0 l0 0 ZM262 249 l0 -18 l-19 0 l0 18 l19 0 l0 0 ZM262 212 l0 -19 l-19 0 l0 19 l19 0 l0 0 ZM262 174 l0 -19 l-19 0 l0 19 l19 0 l0 0 ZM490 174 l19 0 l0 322 l-95 0 l0 -322 l19 0 l0 -19 l19 0 l0 19 l19 0 l0 -19 l19 0 l0 19 l0 0 ZM452 439 l0 -19 l-19 0 l0 19 l19 0 l0 0 ZM452 401 l0 -19 l-19 0 l0 19 l19 0 l0 0 ZM452 363 l0 -19 l-19 0 l0 19 l19 0 l0 0 ZM452 325 l0 -19 l-19 0 l0 19 l19 0 l0 0 ZM452 287 l0 -19 l-19 0 l0 19 l19 0 l0 0 ZM452 249 l0 -18 l-19 0 l0 18 l19 0 l0 0 ZM452 212 l0 -19 l-19 0 l0 19 l19 0 l0 0 ZM490 439 l0 -19 l-19 0 l0 19 l19 0 l0 0 ZM490 401 l0 -19 l-19 0 l0 19 l19 0 l0 0 ZM490 363 l0 -19 l-19 0 l0 19 l19 0 l0 0 ZM490 325 l0 -19 l-19 0 l0 19 l19 0 l0 0 ZM490 287 l0 -19 l-19 0 l0 19 l19 0 l0 0 ZM490 249 l0 -18 l-19 0 l0 18 l19 0 l0 0 ZM490 212 l0 -19 l-19 0 l0 19 l19 0 l0 0 Z"></path></symbol><symbol id="uni-58904" viewBox="0 -20 512 512"><path d="M464 500 l-429 0 q-14 0 -24.5 -10.5 q-10.5 -10.5 -10.5 -25.5 l0 -428 q0 -15 10.5 -25.5 q10.5 -10.5 24.5 -10.5 l429 0 q15 0 25.5 10.5 q10.5 10.5 10.5 25.5 l0 428 q0 15 -10.5 25.5 q-10.5 10.5 -25.5 10.5 l0 0 ZM366 369 l2 2 q4 4 9.5 4 q5.5 0 9.5 -4 l53 -54 q1 -1 1.5 -1.5 q0.5 -0.5 0.5 -1.5 q2 -1 3 -3 q1 -2 1 -5 l0 -3 q0 -3 -1.5 -5.5 q-1.5 -2.5 -3.5 -4.5 q0 -1 -0.5 -1 q-0.5 0 -0.5 0 l-53 -54 q-4 -4 -9.5 -4 q-5.5 0 -9.5 4 l-2 2 q-4 4 -4 9.5 q0 5.5 4 9.5 l30 31 l-151 0 q-5 0 -9 4 q-4 4 -4 9 l0 3 q0 6 4 9.5 q4 3.5 9 3.5 l152 0 l-31 32 q-4 3 -4 8.5 q0 5.5 4 9.5 l0 0 ZM54 377 q0 3 1 5.5 q1 2.5 3 3.5 q0 1 0.5 2 q0.5 1 1.5 1 l53 53 q4 4 9.5 4 q5.5 0 9.5 -4 l2 -2 q4 -3 4 -8.5 q0 -5.5 -4 -9.5 l-31 -31 l152 0 q5 0 9 -4 q4 -4 4 -10 l0 -3 q0 -5 -4 -9 q-4 -4 -9 -4 l-151 0 l30 -31 q4 -4 4 -9.5 q0 -5.5 -4 -8.5 l-2 -2 q-4 -4 -9.5 -4 q-5.5 0 -9.5 4 l-53 53 q0 0 -0.5 0.5 q-0.5 0.5 -0.5 0.5 q-2 2 -3.5 4.5 q-1.5 2.5 -1.5 5.5 l0 3 l0 0 ZM134 131 l-2 -2 q-4 -4 -9.5 -4 q-5.5 0 -9.5 4 l-53 54 q-1 0 -1 0.5 q0 0.5 0 0.5 q-2 2 -3.5 4 q-1.5 2 -1.5 5 l0 3 q0 3 1 5.5 q1 2.5 3 3.5 q0 1 0.5 2 q0.5 1 1.5 1 l53 54 q4 4 9.5 4 q5.5 0 9.5 -4 l2 -2 q4 -4 4 -9.5 q0 -5.5 -4 -9.5 l-31 -31 l151 0 q6 0 10 -4 q4 -4 4 -10 l0 -3 q0 -5 -4 -8.5 q-4 -3.5 -10 -3.5 l-151 0 l31 -32 q4 -3 4 -8.5 q0 -5.5 -4 -9.5 l0 0 ZM446 122 q0 -3 -1.5 -5.5 q-1.5 -2.5 -3.5 -4.5 q0 0 0 -0.5 q0 -0.5 -1 -0.5 l-53 -53 q-4 -4 -9.5 -4 q-5.5 0 -9.5 4 l-2 2 q-4 3 -4 8.5 q0 5.5 4 9.5 l31 31 l-151 0 q-6 0 -10 4 q-4 4 -4 9 l0 3 q0 6 4 10 q4 4 10 4 l151 0 l-31 31 q-4 4 -4 9.5 q0 5.5 4 8.5 l2 2 q4 4 9.5 4 q5.5 0 9.5 -4 l53 -53 q1 0 1.5 -1 q0.5 -1 0.5 -2 q2 -1 3 -3.5 q1 -2.5 1 -5.5 l0 -3 l0 0 Z"></path></symbol><symbol id="uni-58905" viewBox="0 -20 512 512"><path d="M500 37 l0 426 q0 16 -11 26.5 q-11 10.5 -26 10.5 l-427 0 q-15 0 -25 -10.5 q-10 -10.5 -10 -26.5 l0 -426 q0 -16 10 -26 q10 -10 25 -10 l427 0 q15 0 26 10 q11 10 11 26 l0 0 Z"></path></symbol><symbol id="uni-58906" viewBox="0 -20 512 512"><path d="M301 475 l0 -450 q0 -10 -7 -17.5 q-7 -7.5 -17 -7.5 l-253 0 q-10 0 -17 7.5 q-7 7.5 -7 17.5 l0 450 q0 11 7 18 q7 7 17 7 l253 0 q10 0 17 -7 q7 -7 7 -18 l0 0 Z"></path></symbol><symbol id="uni-58907" viewBox="0 -20 512 512"><path d="M277 0 q10 0 17 7.5 q7 7.5 7 17.5 l0 450 q0 10 -7 17.5 q-7 7.5 -17 7.5 l-253 0 q-10 0 -17 -7.5 q-7 -7.5 -7 -17.5 l0 -450 q0 -10 7 -17.5 q7 -7.5 17 -7.5 l253 0 l0 0 ZM73 389 l0 -35 l-11 0 l0 35 l11 0 l0 0 ZM105 389 l0 -35 l-11 0 l0 35 l11 0 l0 0 ZM138 389 l0 -35 l-12 0 l0 35 l12 0 l0 0 ZM169 389 l0 -35 l-11 0 l0 35 l11 0 l0 0 ZM202 389 l0 -35 l-12 0 l0 35 l12 0 l0 0 ZM173 281 l27 0 l0 -14 l-27 0 l0 14 l0 0 ZM234 389 l0 -35 l-11 0 l0 35 l11 0 l0 0 ZM240 281 l0 -14 l-27 0 l0 14 l27 0 l0 0 ZM256 229 l0 -14 l-212 0 l0 14 l212 0 l0 0 ZM256 173 l0 -15 l-212 0 l0 15 l212 0 l0 0 ZM256 116 l0 -14 l-212 0 l0 14 l212 0 l0 0 ZM256 60 l0 -15 l-212 0 l0 15 l212 0 l0 0 Z"></path></symbol><symbol id="uni-58908" viewBox="0 -20 512 512"><path d="M250 0 q52 0 97.5 20 q45.5 20 79.5 54 q34 34 54 79.5 q20 45.5 20 97.5 q0 52 -20 97 q-20 45 -54 80 q-34 34 -79.5 53.5 q-45.5 19.5 -97.5 19.5 q-52 0 -97 -19.5 q-45 -19.5 -80 -53.5 q-34 -35 -53.5 -80 q-19.5 -45 -19.5 -97 q0 -52 19.5 -97.5 q19.5 -45.5 53.5 -79.5 q35 -34 80 -54 q45 -20 97 -20 l0 0 ZM105 108 q-4 4 -4 9.5 q0 5.5 4 9.5 l70 70 l-29 0 q-6 0 -10 4 q-4 4 -4 10 l0 3 q0 4 4 8 q4 4 10 4 l61 0 q0 0 0.5 0 q0.5 0 0.5 0 q3 0 6 -1 q3 -1 5 -3 l2 -2 q2 -2 3 -4 q1 -2 1 -4 q0 -1 0.5 -2 q0.5 -1 0.5 -1 l0 -63 q0 -5 -4 -9 q-4 -4 -10 -4 l-3 0 l0 0 q-5 0 -9 4 q-4 4 -4 9 l0 31 l-71 -71 q-4 -4 -9.5 -4 q-5.5 0 -8.5 4 l-2 2 l0 0 ZM222 299 q4 -4 4 -9.5 q0 -5.5 -4 -9.5 l-2 -2 q-4 -4 -9.5 -4 q-5.5 0 -9.5 4 l-70 71 l0 -30 q0 -6 -4 -10 q-4 -4 -10 -4 l-2 0 q-6 0 -9.5 4 q-3.5 4 -3.5 10 l0 62 q0 0 0 0.5 q0 0.5 0 0.5 q0 3 1 6 q1 3 3 4 l2 2 q1 2 3.5 3 q2.5 1 4.5 1 q1 0 2 0.5 q1 0.5 2 0.5 l62 0 q6 0 9.5 -3.5 q3.5 -3.5 3.5 -9.5 l0 -3 q0 -5 -3.5 -9 q-3.5 -4 -9.5 -4 l-30 0 l70 -71 l0 0 ZM279 202 q-4 4 -4 9.5 q0 5.5 3 8.5 l2 2 q3 4 9 4 q6 0 10 -4 l71 -70 l0 30 q0 5 3.5 9 q3.5 4 8.5 4 l3 0 q6 0 10 -4 q4 -4 4 -9 l0 -62 q0 0 0 -0.5 q0 -0.5 -1 -0.5 q1 -3 0 -6 q-1 -3 -3 -5 l-2 -2 q-2 -2 -4.5 -3 q-2.5 -1 -4.5 -1 q-1 0 -2 0 q-1 0 -2 0 l-61 0 q-6 0 -10 4 q-4 4 -4 9 l0 3 q0 6 4 9.5 q4 3.5 10 3.5 l30 0 l-70 71 l0 0 ZM396 393 q4 -3 4 -8.5 q0 -5.5 -4 -9.5 l-71 -71 l29 0 q6 0 10 -4 q4 -4 4 -10 l0 -2 q0 -6 -4 -10 q-4 -4 -10 -4 l-62 0 q0 0 -0.5 0 q-0.5 0 -0.5 0 q-3 0 -5.5 1 q-2.5 1 -4.5 3 l-2 2 q-2 2 -3 4.5 q-1 2.5 -1 4.5 q0 1 -0.5 2 q-0.5 1 -0.5 2 l0 61 q0 5 4 9 q4 4 9 4 l3 0 q5 0 9 -4 q4 -4 4 -9 l0 -30 l72 71 q4 4 9.5 4 q5.5 0 9.5 -4 l2 -2 l0 0 Z"></path></symbol><symbol id="uni-58909" viewBox="0 -20 512 512"><path d="M501 251 q0 -52 -20 -97.5 q-20 -45.5 -54 -79.5 q-34 -34 -79.5 -54 q-45.5 -20 -97.5 -20 q-52 0 -97 20 q-45 20 -80 54 q-34 34 -53.5 79.5 q-19.5 45.5 -19.5 97.5 q0 52 19.5 97 q19.5 45 53.5 80 q35 34 80 53.5 q45 19.5 97 19.5 q52 0 97.5 -19.5 q45.5 -19.5 79.5 -53.5 q34 -35 54 -80 q20 -45 20 -97 l0 0 Z"></path></symbol><symbol id="uni-58910" viewBox="0 -20 512 512"><path d="M285 0 q7 0 11.5 5.5 q4.5 5.5 4.5 12.5 l0 414 q0 7 -4.5 12.5 q-4.5 5.5 -11.5 5.5 l-270 0 q-6 0 -10.5 -5.5 q-4.5 -5.5 -4.5 -12.5 l0 -414 q0 -7 4.5 -12.5 q4.5 -5.5 10.5 -5.5 l270 0 l0 0 ZM151 434 q5 0 8 -3.5 q3 -3.5 3 -8.5 q0 -5 -3 -8.5 q-3 -3.5 -8 -3.5 q-5 0 -8.5 3.5 q-3.5 3.5 -3.5 8.5 q0 5 3.5 8.5 q3.5 3.5 8.5 3.5 l0 0 ZM272 395 l0 -348 l-243 0 l0 348 l243 0 l0 0 Z"></path></symbol><symbol id="uni-58911" viewBox="0 -20 512 512"><path d="M15 450 l270 0 q7 0 11.5 -5.5 q4.5 -5.5 4.5 -12.5 l0 -414 q0 -7 -4.5 -12.5 q-4.5 -5.5 -11.5 -5.5 l-270 0 q-6 0 -10.5 5.5 q-4.5 5.5 -4.5 12.5 l0 414 q0 7 4.5 12.5 q4.5 5.5 10.5 5.5 l0 0 Z"></path></symbol><symbol id="uni-58912" viewBox="0 -20 512 512"><path d="M516 470 l0 -158 q0 -10 -7.5 -17.5 q-7.5 -7.5 -18.5 -7.5 l-158 0 q-10 0 -17.5 7.5 q-7.5 7.5 -7.5 17.5 l0 158 q0 11 7.5 18.5 q7.5 7.5 17.5 7.5 l158 0 q11 0 18.5 -7.5 q7.5 -7.5 7.5 -18.5 l0 0 ZM312 465 l0 -147 q0 -11 7.5 -18.5 q7.5 -7.5 18.5 -7.5 l147 0 q11 0 18.5 7.5 q7.5 7.5 7.5 18.5 l0 147 q0 11 -7.5 18.5 q-7.5 7.5 -18.5 7.5 l-147 0 q-11 0 -18.5 -7.5 q-7.5 -7.5 -7.5 -18.5 l0 0 ZM307 367 l0 92 l-281 0 q-11 0 -18.5 -7.5 q-7.5 -7.5 -7.5 -18.5 l0 -423 q0 -11 7.5 -18.5 q7.5 -7.5 18.5 -7.5 l423 0 q11 0 18.5 7.5 q7.5 7.5 7.5 18.5 l0 277 l-92 0 l-4 -4 q-4 -4 -9.5 -4 q-5.5 0 -9.5 4 l-2 2 q-1 0 -1 0.5 q0 0.5 -1 1.5 l-24 0 q-10 0 -17.5 7.5 q-7.5 7.5 -7.5 17.5 l0 25 l-74 0 q-6 0 -10 4 q-4 4 -4 9 l0 3 q0 6 4 10 q4 4 10 4 l74 0 l0 0 ZM357 98 q-4 4 -4 10 q0 6 4 10 l33 32 l-157 0 q-6 0 -10 4 q-4 4 -4 10 l0 3 q0 6 4 10 q4 4 10 4 l156 0 l-32 31 q-4 4 -4 10 q0 6 4 10 l2 2 q4 4 9.5 4 q5.5 0 9.5 -4 l56 -56 q0 0 0.5 0 q0.5 0 0.5 0 q2 -2 3.5 -5 q1.5 -3 1.5 -6 l0 -3 q0 -3 -1 -5 q-1 -2 -3 -4 q0 -1 -0.5 -1.5 q-0.5 -0.5 -1.5 -1.5 l-55 -55 q-5 -5 -10.5 -5 q-5.5 0 -9.5 5 l-2 1 l0 0 ZM35 90 l0 3 q0 3 1.5 6 q1.5 3 3.5 5 q0 0 0.5 0.5 q0.5 0.5 0.5 0.5 l55 55 q4 4 10 4 q6 0 10 -4 l2 -2 q4 -4 4 -9.5 q0 -5.5 -4 -9.5 l-32 -32 l156 0 q6 0 10 -4 q4 -4 4 -10 l0 -3 q0 -5 -4 -9 q-4 -4 -10 -4 l-157 0 l33 -33 q4 -4 4 -9.5 q0 -5.5 -4 -9.5 l-2 -2 q-4 -4 -10 -4 q-6 0 -10 4 l-55 55 q-1 1 -1.5 1.5 q-0.5 0.5 -0.5 1.5 q-2 2 -3 4.5 q-1 2.5 -1 4.5 l0 0 ZM117 344 q4 -4 4 -9.5 q0 -5.5 -4 -9.5 l-32 -32 l157 0 q5 0 9 -4 q4 -4 4 -10 l0 -2 q0 -6 -4 -10 q-4 -4 -9 -4 l-157 0 l32 -33 q4 -4 4 -9.5 q0 -5.5 -4 -9.5 l-2 -2 q-4 -4 -9.5 -4 q-5.5 0 -9.5 4 l-55 56 q-1 0 -1.5 1 q-0.5 1 -1.5 1 q-1 2 -2 4.5 q-1 2.5 -1 5.5 l0 2 q0 4 1.5 6.5 q1.5 2.5 3.5 4.5 q0 0 0 0.5 q0 0.5 1 0.5 l55 55 q4 4 9.5 4 q5.5 0 9.5 -4 l2 -2 l0 0 ZM392 421 q3 2 6.5 3.5 q3.5 1.5 7.5 2.5 q-22 19 -39 28 q-17 9 -22 4 q-5 -5 4.5 -22 q9.5 -17 28.5 -39 l-39 0 l0 11 l-16 -17 l16 -16 l0 11 l39 0 q-2 10 2 19 q4 9 12 15 l0 0 ZM417 427 l0 37 l11 0 l-16 16 l-17 -16 l11 0 l0 -37 q2 0 3 0 q1 0 2 0 q2 0 3 0 q1 0 3 0 l0 0 ZM500 392 l-16 17 l0 -11 l-38 0 q19 22 28 39.5 q9 17.5 4 22.5 q-5 5 -22 -4.5 q-17 -9.5 -39 -29.5 q7 -1 12.5 -4.5 q5.5 -3.5 9.5 -8.5 q8 -12 5.5 -26 q-2.5 -14 -13.5 -22 q-5 -3 -9.5 -4.5 q-4.5 -1.5 -10.5 -1.5 q-8 0 -15.5 4 q-7.5 4 -11.5 11 q-3 3 -4 6.5 q-1 3.5 -2 6.5 q-20 -23 -30 -41 q-10 -18 -4 -23 q5 -5 22.5 5 q17.5 10 39.5 30 l0 -38 l-11 0 l17 -17 l16 17 l-11 0 l0 38 q23 -20 40.5 -30 q17.5 -10 22.5 -5 q5 5 -5 23 q-10 18 -30 41 l39 0 l0 -11 l16 16 l0 0 Z"></path></symbol><symbol id="uni-58913" viewBox="0 -20 512 512"><path d="M475 433 l0 -423 q0 -11 -7.5 -18.5 q-7.5 -7.5 -18.5 -7.5 l-423 0 q-11 0 -18.5 7.5 q-7.5 7.5 -7.5 18.5 l0 423 q0 11 7.5 18.5 q7.5 7.5 18.5 7.5 l423 0 q11 0 18.5 -7.5 q7.5 -7.5 7.5 -18.5 l0 0 ZM516 470 l0 -158 q0 -10 -7.5 -17.5 q-7.5 -7.5 -18.5 -7.5 l-158 0 q-10 0 -17.5 7.5 q-7.5 7.5 -7.5 17.5 l0 158 q0 11 7.5 18.5 q7.5 7.5 17.5 7.5 l158 0 q11 0 18.5 -7.5 q7.5 -7.5 7.5 -18.5 l0 0 ZM312 465 l0 -147 q0 -11 7.5 -18.5 q7.5 -7.5 18.5 -7.5 l147 0 q11 0 18.5 7.5 q7.5 7.5 7.5 18.5 l0 147 q0 11 -7.5 18.5 q-7.5 7.5 -18.5 7.5 l-147 0 q-11 0 -18.5 -7.5 q-7.5 -7.5 -7.5 -18.5 l0 0 ZM513 468 l0 -153 q0 -11 -7.5 -18.5 q-7.5 -7.5 -17.5 -7.5 l-153 0 q-11 0 -18.5 7.5 q-7.5 7.5 -7.5 18.5 l0 153 q0 10 7.5 17.5 q7.5 7.5 18.5 7.5 l153 0 q10 0 17.5 -7.5 q7.5 -7.5 7.5 -17.5 l0 0 Z"></path></symbol><symbol id="uni-58914" viewBox="0 -20 512 512"><path d="M536 -16 q11 0 19.5 8.5 q8.5 8.5 8.5 19.5 l0 456 q0 11 -8.5 19.5 q-8.5 8.5 -19.5 8.5 l-321 0 q-12 0 -20.5 0 q-8.5 0 -8.5 0 q-1 0 -9.5 0 q-8.5 0 -20.5 0 l-128 0 q-11 0 -19.5 -8.5 q-8.5 -8.5 -8.5 -19.5 l0 -456 q0 -11 8.5 -19.5 q8.5 -8.5 19.5 -8.5 l128 0 q12 0 20.5 0 q8.5 0 9.5 0 q0 0 8.5 0 q8.5 0 20.5 0 l321 0 l0 0 ZM174 290 q-1 -17 -1.5 -29 q-0.5 -12 -0.5 -17 q0 -6 1 -24.5 q1 -18.5 3 -41.5 q4 -48 6 -78 q2 -30 0 -34 q-4 -10 -14 -16 q-10 -6 -45 -6 q-31 0 -42 6 q-11 6 -13 16 q-1 6 0.5 38 q1.5 32 3.5 78 q2 22 3 39 q1 17 1 23 q0 10 -1.5 29 q-1.5 19 -3.5 41 q-4 62 -5 90 q-1 28 3 32 l0 1 q7 6 16 9 q9 3 40 3 q27 0 35 -2.5 q8 -2.5 14 -8.5 l2 -2 q5 -4 4 -40.5 q-1 -36.5 -6 -105.5 l0 0 ZM306 446 l0 -21 l-61 0 l0 21 l61 0 l0 0 ZM306 387 l0 -21 l-61 0 l0 21 l61 0 l0 0 ZM488 446 l0 -21 l-162 0 l0 21 l162 0 l0 0 ZM488 381 l0 -21 l-162 0 l0 21 l162 0 l0 0 ZM488 316 l0 -21 l-162 0 l0 21 l162 0 l0 0 ZM503 254 l0 -207 l-281 0 l0 207 l281 0 l0 0 Z"></path></symbol><symbol id="uni-58915" viewBox="0 -20 512 512"><path d="M215 -16 l321 0 q11 0 19.5 8.5 q8.5 8.5 8.5 19.5 l0 456 q0 11 -8.5 19.5 q-8.5 8.5 -19.5 8.5 l-321 0 q-12 0 -20.5 0 q-8.5 0 -8.5 0 q-1 0 -9.5 0 q-8.5 0 -20.5 0 l-128 0 q-11 0 -19.5 -8.5 q-8.5 -8.5 -8.5 -19.5 l0 -456 q0 -11 8.5 -19.5 q8.5 -8.5 19.5 -8.5 l128 0 q12 0 20.5 0 q8.5 0 9.5 0 q0 0 8.5 0 q8.5 0 20.5 0 l0 0 Z"></path></symbol><symbol id="uni-58916" viewBox="0 -20 512 512"><path d="M619 0 q13 0 22 9 q9 9 9 22 l0 353 q0 13 -9 22 q-9 9 -22 9 l-251 0 l44 43 q9 9 6 15.5 q-3 6.5 -16 6.5 l-134 0 q-12 0 -15 -6.5 q-3 -6.5 6 -15.5 l43 -43 l-250 0 q-13 0 -22 -9 q-9 -9 -9 -22 l0 -353 q0 -13 9 -22 q9 -9 22 -9 l567 0 l0 0 ZM597 370 l0 -325 l-524 0 l0 325 l524 0 l0 0 Z"></path></symbol><symbol id="uni-58917" viewBox="0 -20 512 512"><path d="M315 408 l-46 47 q-9 9 -6.5 15.5 q2.5 6.5 15.5 6.5 l119 0 q13 0 16 -6.5 q3 -6.5 -6 -15.5 l-47 -47 q-9 -9 -22 -9 q-13 0 -23 9 l0 0 ZM414 458 l-54 -54 q-9 -9 -22 -9 q-13 0 -23 9 l-54 54 q-9 9 -6.5 15.5 q2.5 6.5 15.5 6.5 l135 0 q13 0 16 -6.5 q3 -6.5 -7 -15.5 l0 0 ZM277 452 l38 -39 q10 -9 23 -9 q13 0 22 9 l39 39 q9 9 6 15.5 q-3 6.5 -15 6.5 l-104 0 q-13 0 -15.5 -6.5 q-2.5 -6.5 6.5 -15.5 l0 0 ZM655 383 l0 -355 q0 -13 -9.5 -22 q-9.5 -9 -22.5 -9 l-571 0 q-13 0 -22 9 q-9 9 -9 22 l0 355 q0 13 9 22.5 q9 9.5 22 9.5 l571 0 q13 0 22.5 -9.5 q9.5 -9.5 9.5 -22.5 l0 0 Z"></path></symbol><symbol id="uni-58918" viewBox="0 -20 512 512"><path d="M0 86 q0 -31 6 -52.5 q6 -21.5 14 -21.5 l70 0 l0 148 l-70 0 q-8 0 -14 -22 q-6 -22 -6 -52 l0 0 ZM571 462 l-9 15 l-215 -128 l0 147 l-17 0 l0 -147 l-215 128 l-9 -15 l196 -116 l-16 0 l0 -47 l-149 0 q-12 0 -20.5 -8 q-8.5 -8 -8.5 -20 l0 -70 l452 0 l0 70 q0 12 -8.5 20 q-8.5 8 -20.5 8 l-140 0 l0 47 l-16 0 l196 116 l0 0 ZM560 13 l0 171 l-452 0 l0 -171 q0 -12 8.5 -20.5 q8.5 -8.5 20.5 -8.5 l394 0 q12 0 20.5 8.5 q8.5 8.5 8.5 20.5 l0 0 Z"></path></symbol><symbol id="uni-58919" viewBox="0 -20 512 512"><path d="M0 90 q0 -30 6 -51.5 q6 -21.5 14 -21.5 l69 0 l0 146 l-69 0 q-8 0 -14 -21 q-6 -21 -6 -52 l0 0 ZM386 307 l0 40 l-15 0 l182 108 q5 3 7 7.5 q2 4.5 0 7.5 q-2 3 -6.5 3 q-4.5 0 -9.5 -3 l-201 -119 l0 131 q0 6 -2.5 10 q-2.5 4 -5.5 4 q-4 0 -6.5 -4 q-2.5 -4 -2.5 -10 l0 -131 l-200 119 q-5 3 -10 3 q-5 0 -7 -3 q-1 -3 1 -7.5 q2 -4.5 7 -7.5 l182 -108 l-16 0 l0 -40 l-149 0 q-12 0 -20.5 -8 q-8.5 -8 -8.5 -20 l0 -267 q0 -11 8.5 -19.5 q8.5 -8.5 20.5 -8.5 l401 0 q12 0 20 8.5 q8 8.5 8 19.5 l0 267 q0 12 -8 20 q-8 8 -20 8 l-149 0 l0 0 Z"></path></symbol><symbol id="uni-58920" viewBox="0 -20 512 512"><path d="M252 340 q-6 0 -22 -14 q-16 -14 -37 -72 q0 -1 0.5 -2 q0.5 -1 0.5 -2 q22 -66 38 -80 q16 -14 21 -14 l0 0 q14 0 31 29.5 q17 29.5 27 63.5 q0 1 0.5 2 q0.5 1 0.5 3 q-8 25 -24.5 55 q-16.5 30 -35.5 31 l0 0 ZM548 339 q-7 0 -23 -14 q-16 -14 -37 -71 q1 -1 1.5 -2.5 q0.5 -1.5 0.5 -2.5 q22 -65 38 -79.5 q16 -14.5 21 -14.5 q14 0 31 30.5 q17 30.5 26 64.5 q1 0 1 1 q0 1 1 2 q-8 23 -24.5 54 q-16.5 31 -35.5 32 l0 0 ZM400 149 q6 0 22 14 q16 14 38 73 q-1 1 -1 1.5 q0 0.5 0 0.5 q-23 66 -38.5 80.5 q-15.5 14.5 -20.5 14.5 q-14 -1 -31 -30.5 q-17 -29.5 -27 -62.5 q0 -2 -0.5 -3.5 q-0.5 -1.5 -0.5 -2.5 q8 -26 24.5 -55 q16.5 -29 34.5 -30 l0 0 ZM549 360 q23 -1 40 -24 q17 -23 27 -46 l0 152 q0 13 -9 22 q-9 9 -21 9 l-526 0 q-13 0 -22 -9 q-9 -9 -9 -22 l0 -151 q11 26 29.5 50.5 q18.5 24.5 44.5 25.5 l1 0 q22 0 41 -20.5 q19 -20.5 36 -62.5 q17 38 34.5 57.5 q17.5 19.5 36.5 19.5 l1 0 q25 -1 42.5 -26 q17.5 -25 27.5 -50 q11 26 30 53 q19 27 47 28 q22 0 41 -20.5 q19 -20.5 36 -62.5 q17 39 34.5 58 q17.5 19 37.5 19 q0 0 0 0 q0 0 0 0 l0 0 ZM163 239 q-23 66 -38.5 80.5 q-15.5 14.5 -20.5 14.5 q-14 -1 -31 -30.5 q-17 -29.5 -27 -62.5 q0 -1 -0.5 -2.5 q-0.5 -1.5 -1.5 -2.5 q7 -22 23.5 -54 q16.5 -32 36.5 -32 q6 0 22.5 14 q16.5 14 37.5 72 q0 1 -0.5 2 q-0.5 1 -0.5 1 l0 0 ZM103 128 q-27 1 -45.5 30.5 q-18.5 29.5 -28.5 55.5 l0 -176 q0 -13 9 -22 q9 -9 22 -9 l526 0 q12 0 21 9 q9 9 9 22 l0 146 q-11 -23 -28 -42 q-17 -19 -40 -20 q-21 0 -40.5 20.5 q-19.5 20.5 -36.5 63.5 q-17 -39 -34.5 -58.5 q-17.5 -19.5 -37.5 -19.5 l0 0 q-24 1 -41.5 25.5 q-17.5 24.5 -27.5 49.5 q-11 -26 -30.5 -53 q-19.5 -27 -46.5 -28 q-22 0 -41 21 q-19 21 -37 64 q-17 -40 -34.5 -59.5 q-17.5 -19.5 -37.5 -19.5 l0 0 l0 0 Z"></path></symbol><symbol id="uni-58921" viewBox="0 -20 512 512"><path d="M29 38 l0 404 q0 13 9 22 q9 9 22 9 l526 0 q12 0 21 -9 q9 -9 9 -22 l0 -404 q0 -13 -9 -22 q-9 -9 -21 -9 l-526 0 q-13 0 -22 9 q-9 9 -9 22 l0 0 Z"></path></symbol><symbol id="uni-58922" viewBox="0 -20 512 512"><path d="M462 108 q0 -25 -17.5 -43 q-17.5 -18 -42.5 -18 q-25 0 -43 18 q-18 18 -18 43 q0 25 18 42.5 q18 17.5 43 17.5 q25 0 42.5 -17.5 q17.5 -17.5 17.5 -42.5 l0 0 ZM447 376 q0 -27 -18.5 -45.5 q-18.5 -18.5 -45.5 -18.5 q-26 0 -45 19 q-19 19 -19 45 q0 27 19 45.5 q19 18.5 45 18.5 q27 0 45.5 -18.5 q18.5 -18.5 18.5 -45.5 l0 0 ZM362 50 l-22 23 q0 0 -4.5 -4 q-4.5 -4 -13.5 -9 q-9 -6 -21.5 -11.5 q-12.5 -5.5 -26.5 -8.5 q-3 -1 -6.5 -1.5 q-3.5 -0.5 -7.5 -0.5 q-3 0 -6.5 -1 q-3.5 -1 -6.5 0 q-6 -1 -12 0 q-6 1 -11 1 q-4 1 -7.5 2 q-3.5 1 -6.5 1 q-1 1 -2 1 q-1 0 -1 0 l8 27 q-17 -6 -37.5 -8.5 q-20.5 -2.5 -42.5 0.5 q8 -20 22 -40 q14 -20 34 -37 l8 27 q0 0 0.5 0 q0.5 0 2.5 -1 q3 0 7 -1 q4 -1 9 -2 q7 -1 14.5 -2 q7.5 -1 15.5 0 q4 -1 8 0 q4 1 8 1 q5 1 9 1.5 q4 0.5 8 1.5 q17 3 32 10 q15 7 26 13 q11 7 17 12 q6 5 6 6 l0 0 ZM249 377 q22 15 35 20 q13 5 42 13 q-12 28 -23 46.5 q-11 18.5 -31 39.5 q-2 -9 -4 -18 q-2 -9 -4 -17 q-56 0 -104.5 -17.5 q-48.5 -17.5 -83.5 -49.5 q-35 -32 -55.5 -76 q-20.5 -44 -20.5 -96 q0 -62 47.5 -109 q47.5 -47 106.5 -47 q65 0 110.5 45.5 q45.5 45.5 45.5 110.5 q0 64 -45.5 109.5 q-45.5 45.5 -110.5 45.5 q-3 0 -9.5 0.5 q-6.5 0.5 -9.5 -0.5 q21 20 52.5 31.5 q31.5 11.5 66.5 10.5 q-1 -12 -3 -27 q-2 -15 -2 -15 l0 0 ZM86 233 q0 42 21 63 q21 21 53 21 q32 0 51 -16 q19 -16 22 -46 l-38 0 q-1 19 -10 27.5 q-9 8.5 -24 8.5 q-15 0 -26 -13 q-11 -13 -11 -45 q0 -30 10.5 -43 q10.5 -13 27.5 -13 q12 0 21 7 q9 7 12 22 l37 0 q-4 -27 -23.5 -41 q-19.5 -14 -46.5 -14 q-35 0 -55.5 21 q-20.5 21 -20.5 61 l0 0 Z"></path></symbol><symbol id="uni-58923" viewBox="0 -20 512 512"><path d="M270 496 l-152 0 q0 0 -1 -16.5 q-1 -16.5 -1 -46.5 q0 -26 -22.5 -79.5 q-22.5 -53.5 -46.5 -109.5 q-24 -56 -39.5 -100.5 q-15.5 -44.5 -1.5 -52.5 q25 -14 47 31.5 q22 45.5 32 65.5 q7 14 12.5 8.5 q5.5 -5.5 5.5 -19.5 q0 -12 -17 -84.5 q-17 -72.5 18 -78.5 q33 -5 39 77 q6 82 31 74 q11 -4 4.5 -92.5 q-6.5 -88.5 32.5 -88.5 q35 0 31.5 83.5 q-3.5 83.5 -2.5 93.5 q0 9 6.5 13.5 q6.5 4.5 16.5 -7.5 q8 -11 19 -59.5 q11 -48.5 19 -76.5 q9 -30 37 -23.5 q28 6.5 24 28.5 q-3 12 -12.5 46.5 q-9.5 34.5 -19.5 73.5 q-10 39 -17 73 q-7 34 -4 44 q6 21 44 -7 q38 -28 52 -39 q18 -15 35.5 -3 q17.5 12 10.5 20 q-4 5 -26.5 31 q-22.5 26 -51.5 59 q-29 32 -58 62.5 q-29 30.5 -45 42.5 q0 1 0 29 q0 28 0 28 l0 0 Z"></path></symbol><symbol id="uni-58924" viewBox="0 -20 512 512"><path d="M307 -16 l176 0 l0 176 l-176 -176 ZM380 25 l-101 101 l62 62 l101 -101 l-62 -62 l0 0 ZM176 -16 l-176 0 l0 176 l176 -176 ZM204 126 l-101 -101 l-62 62 l101 101 l62 -62 l0 0 ZM307 496 l176 0 l0 -176 l-176 176 ZM279 354 l101 101 l62 -62 l-101 -101 l-62 62 l0 0 ZM176 496 l-176 0 l0 -176 l176 176 ZM103 455 l101 -101 l-62 -62 l-101 101 l62 62 l0 0 Z"></path></symbol><symbol id="uni-58925" viewBox="0 -20 512 512"><path d="M256 496 q53 0 99.5 -20 q46.5 -20 81.5 -55 q35 -35 55 -81.5 q20 -46.5 20 -99.5 q0 -53 -20 -99.5 q-20 -46.5 -55 -81.5 q-35 -35 -81.5 -55 q-46.5 -20 -99.5 -20 q-53 0 -99.5 20 q-46.5 20 -81.5 55 q-35 35 -55 81.5 q-20 46.5 -20 99.5 q0 53 20 99.5 q20 46.5 55 81.5 q35 35 81.5 55 q46.5 20 99.5 20 l0 0 ZM256 10 q48 0 90 18 q42 18 73 49 q31 31 49 73 q18 42 18 90 q0 48 -18 90 q-18 42 -49 73 q-31 31 -73 49 q-42 18 -90 18 q-48 0 -90 -18 q-42 -18 -73 -49 q-31 -31 -49 -73 q-18 -42 -18 -90 q0 -48 18 -90 q18 -42 49 -73 q31 -31 73 -49 q42 -18 90 -18 l0 0 ZM240 353 l32 0 l0 -92 l91 0 l0 -29 l-91 0 l0 -93 l-32 0 l0 93 l-91 0 l0 29 l91 0 l0 92 l0 0 Z"></path></symbol><symbol id="uni-58926" viewBox="0 -20 512 512"><path d="M256 496 q53 0 99.5 -20 q46.5 -20 81.5 -55 q35 -35 55 -81.5 q20 -46.5 20 -99.5 q0 -53 -20 -99.5 q-20 -46.5 -55 -81.5 q-35 -35 -81.5 -55 q-46.5 -20 -99.5 -20 q-53 0 -99.5 20 q-46.5 20 -81.5 55 q-35 35 -55 81.5 q-20 46.5 -20 99.5 q0 53 20 99.5 q20 46.5 55 81.5 q35 35 81.5 55 q46.5 20 99.5 20 l0 0 ZM256 10 q48 0 90 18 q42 18 73 49 q31 31 49 73 q18 42 18 90 q0 48 -18 90 q-18 42 -49 73 q-31 31 -73 49 q-42 18 -90 18 q-48 0 -90 -18 q-42 -18 -73 -49 q-31 -31 -49 -73 q-18 -42 -18 -90 q0 -48 18 -90 q18 -42 49 -73 q31 -31 73 -49 q42 -18 90 -18 l0 0 ZM153 225 l0 30 l206 0 l0 -30 l-206 0 l0 0 Z"></path></symbol><symbol id="uni-58927" viewBox="0 -20 512 512"><path d="M512 240 l-47 0 l0 256 l-419 0 l0 -256 l-46 0 l256 -256 l93 93 l0 -70 l93 0 l0 163 l70 70 Z"></path></symbol><symbol id="uni-58928" viewBox="0 -20 512 512"><path d="M0 -16 l299 0 l0 512 l-107 0 l0 -85 l-85 0 l0 85 l-107 0 l0 -512 l0 0 Z"></path></symbol><symbol id="uni-58929" viewBox="0 -20 512 512"><path d="M76 79 l19 0 l0 417 l-95 0 l0 -417 l19 0 l0 -38 l57 0 l0 38 l0 0 ZM228 41 l94 -57 l0 512 l-94 0 l0 -455 l0 0 ZM114 136 l95 0 l0 360 l-95 0 l0 -360 l0 0 ZM417 174 l19 0 l0 322 l-95 0 l0 -322 l19 0 l0 -19 l19 0 l0 19 l19 0 l0 -19 l19 0 l0 19 l0 0 Z"></path></symbol><symbol id="uni-58930" viewBox="0 -20 512 512"><path d="M204 246 q0 -36 -25 -61 q-25 -25 -61 -25 q-35 0 -60 25 q-25 25 -25 61 q0 35 25 60 q25 25 60 25 q36 0 61 -25 q25 -25 25 -60 l0 0 ZM338 162 l-119 84 l119 83 l0 -167 ZM317 403 l121 0 l0 -22 l-100 0 l0 -85 l-21 0 l0 107 ZM317 196 l21 0 l0 -86 l100 0 l0 -21 l-121 0 l0 107 ZM483 99 q0 -22 -15.5 -37.5 q-15.5 -15.5 -37.5 -15.5 q-22 0 -37.5 15.5 q-15.5 15.5 -15.5 37.5 q0 22 15.5 38 q15.5 16 37.5 16 q22 0 37.5 -16 q15.5 -16 15.5 -38 l0 0 ZM483 392 q0 -22 -15.5 -37.5 q-15.5 -15.5 -37.5 -15.5 q-22 0 -37.5 15.5 q-15.5 15.5 -15.5 37.5 q0 22 15.5 37.5 q15.5 15.5 37.5 15.5 q22 0 37.5 -15.5 q15.5 -15.5 15.5 -37.5 l0 0 Z"></path></symbol><symbol id="uni-58931" viewBox="0 -20 512 512"><path d="M578 225 q36 12 59.5 43 q23.5 31 23.5 71 q0 49 -35 83.5 q-35 34.5 -84 34.5 l-366 0 q-49 0 -84 -34.5 q-35 -34.5 -35 -83.5 q0 -39 22 -69.5 q22 -30.5 56 -42.5 q-2 -7 -3 -13.5 q-1 -6.5 -1 -14.5 q0 -41 29.5 -70.5 q29.5 -29.5 71.5 -29.5 q23 0 43 9.5 q20 9.5 34 25.5 q16 -38 51.5 -62.5 q35.5 -24.5 79.5 -24.5 q59 0 100.5 41.5 q41.5 41.5 41.5 100.5 q0 10 -1 19 q-1 9 -3 17 l0 0 Z"></path></symbol><symbol id="uni-58932" viewBox="0 -20 512 512"><path d="M0 496.14 q0 0 2.5 -34.5 q2.5 -34.5 2.5 -41.5 q0 -7 7.5 -16.5 q7.5 -9.5 15.5 -15.5 q9 -5 23 -10 q14 -5 24 -10 q3 -2 6.5 -3.5 q3.5 -1.5 6.5 -2.5 q11 -5 22 -9 q11 -4 23 -8 q12 -5 24.5 -9 q12.5 -4 23.5 -10 q5 -2 7.5 -7 q2.5 -5 4.5 -10 q2 -4 4.5 -10 q2.5 -6 6.5 -8 q4 -2 8 -2 q4 0 4 0 q0 0 1.5 -1 q1.5 -1 0.5 -9 q-2 -6 -6.5 -6 q-4.5 0 -7.5 -13 q-3 -9 -3 -16.5 q0 -7.5 -3 -14.5 q-3 -8 -1.5 -8 q1.5 0 -1.5 -2 q-4 -1 -5.5 -0.5 q-1.5 0.5 -5.5 -2.5 q-3 -4 -4 -13.5 q-1 -9.5 -4 -17.5 q-2 -7 -3 -21 q-1 -14 0 -17 q2 -3 4 -2.5 q2 0.5 1 -4.5 q0 -3 -1 -5.5 q-1 -2.5 -1 -5.5 q-1 -8 -1.5 -15.5 q-0.5 -7.5 -1.5 -15.5 q-1 -10 -2 -14.5 q-1 -4.5 -1 -9.5 q-1 -5 0 -11.5 q1 -6.5 5 -14.5 q4 -12 9 -24 q5 -12 21 -13 q3 0 5 -2 q2 -2 4 -4 q2 -3 4.5 -5 q2.5 -2 5.5 -4 q5 -3 7 -4 q2 -1 12 -4 q5 -2 9 -3 q4 -1 9 -1 q22 -1 44 5 q22 6 41 18 q4 3 7.5 6.5 q3.5 3.5 6.5 7.5 q4 5 7.5 11 q3.5 6 7.5 12 q4 6 5.5 13.5 q1.5 7.5 2.5 14.5 q3 39 -1.5 52 q-4.5 13 -2.5 24 q0 1 3 -0.5 q3 -1.5 3 7.5 q-4 40 -8.5 51 q-4.5 11 -7.5 13 q-3 3 -6 2.5 q-3 -0.5 -3 -0.5 q0 0 -2.5 18 q-2.5 18 -4.5 24 q-2 7 -7 11 q-5 4 -5 4 q0 0 0 7 q0 7 5 7 q6 -1 6.5 1.5 q0.5 2.5 2.5 6.5 q2 3 4 5.5 q2 2.5 4 4.5 q6 6 12 12 q6 6 14 9 q13 5 25 9.5 q12 4.5 24 8.5 q14 5 27 10.5 q13 5.5 26 11.5 q23 11 29 13.5 q6 2.5 15 8.5 q10 6 11 13.5 q1 7.5 4 13.5 q2 6 3.5 41 q1.5 35 1.5 35 l-555 0 l0 0 ZM482 226.14 l0 28 l313 0 l0 -28 l-313 0 l0 0 ZM625 84.14 l0 312 l28 0 l0 -312 l-28 0 l0 0 Z"></path></symbol><symbol id="uni-58933" viewBox="0 -20 512 512"><path d="M373 48 l-348 0 l0 348 l-25 0 l0 -373 l373 0 l0 25 ZM423 98 l-348 0 l0 348 l-25 0 l0 -373 l373 0 l0 25 ZM100 123 l373 0 l0 373 l-373 0 l0 -373 l0 0 ZM373 421 l0 -25 l-99 0 l0 -199 l-25 0 l0 224 l124 0 l0 0 Z"></path></symbol><symbol id="uni-58934" viewBox="0 -20 512 512"><path d="M523 334 q14 8 23 23 q9 15 9 32 q0 27 -19 45.5 q-19 18.5 -46 18.5 q-26 0 -45 -18.5 q-19 -18.5 -19 -45.5 q0 -17 8 -32 q8 -15 23 -23 q-1 -52 -27.5 -70.5 q-26.5 -18.5 -73.5 -33.5 q-12 -4 -24.5 -8.5 q-12.5 -4.5 -31.5 -10.5 l0 166 q19 8 28 22.5 q9 14.5 9 32.5 q0 27 -16 45.5 q-16 18.5 -43 18.5 q0 0 0 0 q0 0 0 0 q0 0 0 0 q0 0 0 0 q-26 0 -44 -18.5 q-18 -18.5 -18 -45.5 q0 -18 8.5 -32.5 q8.5 -14.5 27.5 -22.5 l0 -166 q-19 6 -31 10.5 q-12 4.5 -24 8.5 q-47 15 -74 33.5 q-27 18.5 -28 70.5 q14 8 23 23 q9 15 9 32 q0 27 -18.5 45.5 q-18.5 18.5 -45.5 18.5 q-26 0 -44.5 -18.5 q-18.5 -18.5 -18.5 -45.5 q0 -17 9.5 -32 q9.5 -15 23.5 -23 q0 -45 15 -74 q15 -29 36 -47 q22 -18 47 -27.5 q25 -9.5 47 -16.5 q40 -12 57 -22.5 q17 -10.5 17 -34.5 l0 -9 q-19 -8 -27.5 -22.5 q-8.5 -14.5 -8.5 -32.5 q0 -26 21 -45 q21 -19 39 -19 l0 0 q0 0 -0.5 0 q-0.5 0 -0.5 0 q27 0 44.5 19 q17.5 19 17.5 45 q0 18 -9 32.5 q-9 14.5 -28 22.5 l0 9 q0 24 18 34.5 q18 10.5 57 22.5 q22 7 47.5 16.5 q25.5 9.5 47.5 27.5 q22 18 37.5 47 q15.5 29 15.5 74 l0 0 ZM63 421 q13 0 22.5 -9 q9.5 -9 9.5 -23 q0 -13 -9.5 -22.5 q-9.5 -9.5 -22.5 -9.5 q-13 0 -22.5 9.5 q-9.5 9.5 -9.5 22.5 q0 14 9.5 23 q9.5 9 22.5 9 l0 0 ZM277 464 q13 0 22 -9.5 q9 -9.5 9 -22.5 q0 -13 -9 -22.5 q-9 -9.5 -22 -9.5 q-13 0 -22 9.5 q-9 9.5 -9 22.5 q0 13 9 22.5 q9 9.5 22 9.5 l0 0 ZM277 80 q13 0 22 -9.5 q9 -9.5 9 -22.5 q0 -13 -9 -22.5 q-9 -9.5 -22 -9.5 q-13 0 -22 9.5 q-9 9.5 -9 22.5 q0 13 9 22.5 q9 9.5 22 9.5 l0 0 ZM491 421 q13 0 22.5 -9 q9.5 -9 9.5 -23 q0 -13 -9.5 -22.5 q-9.5 -9.5 -22.5 -9.5 q-13 0 -22.5 9.5 q-9.5 9.5 -9.5 22.5 q0 14 9.5 23 q9.5 9 22.5 9 l0 0 Z"></path></symbol><symbol id="uni-58935" viewBox="0 -20 512 512"><path d="M598 496 q16 0 28 -12 q12 -12 12 -28 l0 -432 q0 -16 -12 -28 q-12 -12 -28 -12 l-558 0 q-16 0 -28 12 q-12 12 -12 28 l0 432 q0 16 12 28 q12 12 28 12 l558 0 l0 0 ZM40 2 l558 0 q9 0 16 6.5 q7 6.5 7 15.5 l0 432 q0 9 -7 15.5 q-7 6.5 -16 6.5 l-558 0 q-9 0 -15.5 -6.5 q-6.5 -6.5 -6.5 -15.5 l0 -432 q0 -9 6.5 -15.5 q6.5 -6.5 15.5 -6.5 l0 0 ZM242 363 l1 0 q37 -1 58.5 -54 q21.5 -53 24.5 -61 q5 -21 24 -62.5 q19 -41.5 43 -42.5 q9 0 27 18 q18 18 41 85 q19 59 40 87.5 q21 28.5 45 28.5 l0 0 q36 -1 58 -54 q22 -53 24 -61 q1 -4 -0.5 -7 q-1.5 -3 -4.5 -4 l-2 0 l-1 0 q-3 0 -5 1.5 q-2 1.5 -3 4.5 q-7 27 -25.5 65 q-18.5 38 -41.5 38 q-9 0 -27.5 -18 q-18.5 -18 -40.5 -86 q-20 -58 -40.5 -86.5 q-20.5 -28.5 -44.5 -28.5 q0 0 0 0 q0 0 0 0 q-35 1 -56.5 52 q-21.5 51 -26.5 65 q-4 16 -23 59.5 q-19 43.5 -44 43.5 q-9 0 -27 -18 q-18 -18 -41 -86 q-19 -58 -40 -86.5 q-21 -28.5 -45 -28.5 l0 0 q-36 1 -58 53.5 q-22 52.5 -24 61.5 q0 1 0 3 q0 2 1 3 q0 2 1.5 3 q1.5 1 3.5 1 l1 0 l1 0 q3 0 5 -1.5 q2 -1.5 3 -4.5 q6 -21 25 -61.5 q19 -40.5 42 -41.5 q9 0 27.5 18.5 q18.5 18.5 40.5 86.5 q20 58 40.5 86.5 q20.5 28.5 43.5 28.5 l0 0 ZM89 369 l1 0 q25 0 47.5 -29.5 q22.5 -29.5 42.5 -90.5 q23 -69 40.5 -84 q17.5 -15 22.5 -15 q16 0 33.5 31.5 q17.5 31.5 27.5 66.5 q4 15 26.5 67 q22.5 52 63.5 53 q25 0 47 -29.5 q22 -29.5 42 -90.5 q23 -69 40 -84 q17 -15 23 -15 q15 0 33 32 q18 32 28 68 q1 5 5 8 q4 3 9 3 q1 0 2 0 q1 0 2 -1 q5 -1 8 -6.5 q3 -5.5 2 -11.5 q-4 -15 -26.5 -67.5 q-22.5 -52.5 -63.5 -53.5 q-25 0 -47 29 q-22 29 -42 90 q-23 70 -40.5 85 q-17.5 15 -22.5 15 q-15 0 -33 -31.5 q-18 -31.5 -28 -67.5 q-4 -14 -26.5 -66 q-22.5 -52 -62.5 -53 q-26 0 -48 29 q-22 29 -42 90 q-23 70 -40.5 85 q-17.5 15 -22.5 15 q-16 0 -33.5 -31.5 q-17.5 -31.5 -27.5 -66.5 q-1 -5 -5 -8 q-4 -3 -9 -3 q-1 0 -2 0 q-1 0 -2 1 q-6 1 -8.5 6.5 q-2.5 5.5 -1.5 11.5 q4 14 26.5 66 q22.5 52 61.5 53 l0 0 Z"></path></symbol><symbol id="uni-58936" viewBox="0 -20 512 512"><path d="M539 315 q15 0 25.5 -10.5 q10.5 -10.5 10.5 -25.5 l0 -259 q0 -15 -10.5 -25.5 q-10.5 -10.5 -25.5 -10.5 l-391 0 q-15 0 -25.5 10.5 q-10.5 10.5 -10.5 25.5 l0 259 q0 15 10.5 25.5 q10.5 10.5 25.5 10.5 l391 0 l0 0 ZM148 1 l391 0 q8 0 13.5 5.5 q5.5 5.5 5.5 13.5 l0 259 q0 8 -5.5 13.5 q-5.5 5.5 -13.5 5.5 l-391 0 q-8 0 -13.5 -5.5 q-5.5 -5.5 -5.5 -13.5 l0 -259 q0 -8 5.5 -13.5 q5.5 -5.5 13.5 -5.5 l0 0 ZM121 191 l0 17 l446 0 l0 -17 l-446 0 l0 0 ZM105 176 l0 -162 l-77 0 q-20 0 -24 37.5 q-4 37.5 -4 43.5 q0 6 4 43.5 q4 37.5 24 37.5 l77 0 l0 0 ZM28 31 l60 0 l0 128 l-59 0 q-3 -2 -7.5 -19 q-4.5 -17 -4.5 -45 q0 -28 4.5 -45 q4.5 -17 6.5 -19 l0 0 ZM378 324 l-69 0 q0 0 0 4.5 q0 4.5 0 6.5 q0 3 2 5.5 q2 2.5 5 2.5 q3 0 28 -0.5 q25 -0.5 28 -0.5 q3 0 4.5 -1.5 q1.5 -1.5 1.5 -5.5 q0 -3 0 -7 q0 -4 0 -4 l0 0 ZM381 307 l14 0 l0 35 q0 4 -2 7 q-2 3 -5 5 l171 102 q5 3 7 7 q2 4 0 7 q0 2 -2 2.5 q-2 0.5 -4 0.5 q-2 0 -4.5 -0.5 q-2.5 -0.5 -5.5 -2.5 l-191 -114 l-6 0 l0 126 q0 6 -2.5 10 q-2.5 4 -6.5 4 q-3 0 -5.5 -4 q-2.5 -4 -2.5 -10 l0 -126 l-7 0 l-191 114 q-2 2 -4.5 2.5 q-2.5 0.5 -5.5 0.5 q-2 0 -3.5 -0.5 q-1.5 -0.5 -2.5 -2.5 q-2 -3 0 -7 q2 -4 7 -7 l171 -102 q-4 -2 -6 -5 q-2 -3 -2 -7 l0 -35 l89 0 l0 0 Z"></path></symbol><symbol id="uni-58937" viewBox="0 -20 512 512"><path d="M592 496 q63 0 107.5 -44.5 q44.5 -44.5 44.5 -107.5 q0 -48 -27 -86.5 q-27 -38.5 -71 -55.5 q2 -9 3 -18.5 q1 -9.5 1 -19.5 q0 -37 -14 -70 q-14 -33 -39 -57 q-24 -25 -57 -39 q-33 -14 -70 -14 q-52 0 -95 26.5 q-43 26.5 -66 71.5 q-18 -17 -41 -26.5 q-23 -9.5 -49 -9.5 q-54 0 -92 38.5 q-38 38.5 -38 92.5 q0 7 1 14 q1 7 2 13 q-42 18 -67 56 q-25 38 -25 84 q0 63 44.5 107.5 q44.5 44.5 107.5 44.5 l440 0 l0 0 ZM219 64 q25 0 47.5 10.5 q22.5 10.5 38.5 29.5 l9 11 l6 -13 q19 -46 59.5 -73 q40.5 -27 90.5 -27 q33 0 62.5 13 q29.5 13 51.5 35 q22 22 35 51.5 q13 29.5 13 62.5 q0 11 -1.5 21 q-1.5 10 -3.5 20 l-2 9 l8 2 q42 14 67.5 49 q25.5 35 25.5 79 q0 55 -39 94.5 q-39 39.5 -95 39.5 l-440 0 q-55 0 -94.5 -39.5 q-39.5 -39.5 -39.5 -94.5 q0 -42 24 -76.5 q24 -34.5 64 -49.5 l8 -3 l-3 -8 q-2 -7 -3 -15 q-1 -8 -1 -15 q0 -47 33 -80 q33 -33 79 -33 l0 0 Z"></path></symbol><symbol id="uni-58938" viewBox="0 -20 512 512"><path d="M108 496 l0 -415 l-18 0 l0 -36 l-72 0 l0 36 l-18 0 l0 415 l108 0 l0 0 ZM17 479 l0 -381 l18 0 l0 -36 l37 0 l0 36 l18 0 l0 381 l-73 0 l0 0 ZM325 496 l0 -512 l-108 65 l0 447 l108 0 l0 0 ZM234 479 l0 -421 l73 -44 l0 465 l-73 0 l0 0 ZM216 496 l0 -361 l-108 0 l0 361 l108 0 l0 0 ZM126 479 l0 -327 l73 0 l0 327 l-73 0 l0 0 ZM433 496 l0 -325 l-18 0 l0 -18 l-35 0 l0 18 l-1 -18 l-35 0 l0 18 l-19 0 l0 325 l108 0 l0 0 ZM343 479 l0 -290 l18 0 l0 -18 l1 18 l35 0 l0 -18 l1 18 l18 0 l0 290 l-73 0 l0 0 ZM45 430 l0 -18 l-18 0 l0 18 l18 0 l0 0 ZM45 394 l0 -18 l-18 0 l0 18 l18 0 l0 0 ZM45 358 l0 -19 l-18 0 l0 19 l18 0 l0 0 ZM45 321 l0 -18 l-18 0 l0 18 l18 0 l0 0 ZM45 285 l0 -18 l-18 0 l0 18 l18 0 l0 0 ZM45 249 l0 -18 l-18 0 l0 18 l18 0 l0 0 ZM45 213 l0 -18 l-18 0 l0 18 l18 0 l0 0 ZM45 177 l0 -18 l-18 0 l0 18 l18 0 l0 0 ZM45 141 l0 -19 l-18 0 l0 19 l18 0 l0 0 ZM63 412 l0 18 l18 0 l0 -18 l-18 0 l0 0 ZM63 376 l0 18 l18 0 l0 -18 l-18 0 l0 0 ZM63 339 l0 19 l18 0 l0 -19 l-18 0 l0 0 ZM63 303 l0 18 l18 0 l0 -18 l-18 0 l0 0 ZM63 267 l0 18 l18 0 l0 -18 l-18 0 l0 0 ZM63 231 l0 18 l18 0 l0 -18 l-18 0 l0 0 ZM63 195 l0 18 l18 0 l0 -18 l-18 0 l0 0 ZM63 159 l0 18 l18 0 l0 -18 l-18 0 l0 0 ZM63 122 l0 19 l18 0 l0 -19 l-18 0 l0 0 ZM244 412 l0 18 l18 0 l0 -18 l-18 0 l0 0 ZM244 376 l0 18 l18 0 l0 -18 l-18 0 l0 0 ZM244 339 l0 19 l18 0 l0 -19 l-18 0 l0 0 ZM244 303 l0 18 l18 0 l0 -18 l-18 0 l0 0 ZM244 267 l0 18 l18 0 l0 -18 l-18 0 l0 0 ZM244 231 l0 18 l18 0 l0 -18 l-18 0 l0 0 ZM244 195 l0 18 l18 0 l0 -18 l-18 0 l0 0 ZM244 159 l0 18 l18 0 l0 -18 l-18 0 l0 0 ZM244 122 l0 19 l18 0 l0 -19 l-18 0 l0 0 ZM244 86 l0 18 l18 0 l0 -18 l-18 0 l0 0 ZM244 50 l0 18 l18 0 l0 -18 l-18 0 l0 0 ZM280 412 l0 18 l18 0 l0 -18 l-18 0 l0 0 ZM280 376 l0 18 l18 0 l0 -18 l-18 0 l0 0 ZM280 339 l0 19 l18 0 l0 -19 l-18 0 l0 0 ZM280 303 l0 18 l18 0 l0 -18 l-18 0 l0 0 ZM280 267 l0 18 l18 0 l0 -18 l-18 0 l0 0 ZM280 231 l0 18 l18 0 l0 -18 l-18 0 l0 0 ZM280 195 l0 18 l18 0 l0 -18 l-18 0 l0 0 ZM280 159 l0 18 l18 0 l0 -18 l-18 0 l0 0 ZM280 122 l0 19 l18 0 l0 -19 l-18 0 l0 0 ZM280 86 l0 18 l18 0 l0 -18 l-18 0 l0 0 ZM280 50 l0 18 l18 0 l0 -18 l-18 0 l0 0 ZM135 394 l0 18 l18 0 l0 -18 l-18 0 l0 0 ZM135 358 l0 18 l18 0 l0 -18 l-18 0 l0 0 ZM135 321 l0 18 l18 0 l0 -18 l-18 0 l0 0 ZM135 285 l0 18 l18 0 l0 -18 l-18 0 l0 0 ZM135 249 l0 18 l18 0 l0 -18 l-18 0 l0 0 ZM135 213 l0 18 l18 0 l0 -18 l-18 0 l0 0 ZM135 177 l0 18 l18 0 l0 -18 l-18 0 l0 0 ZM135 141 l0 18 l18 0 l0 -18 l-18 0 l0 0 ZM171 394 l0 18 l18 0 l0 -18 l-18 0 l0 0 ZM171 358 l0 18 l18 0 l0 -18 l-18 0 l0 0 ZM171 321 l0 18 l18 0 l0 -18 l-18 0 l0 0 ZM171 285 l0 18 l18 0 l0 -18 l-18 0 l0 0 ZM171 249 l0 18 l18 0 l0 -18 l-18 0 l0 0 ZM171 213 l0 18 l18 0 l0 -18 l-18 0 l0 0 ZM171 177 l0 18 l18 0 l0 -18 l-18 0 l0 0 ZM171 141 l0 18 l18 0 l0 -18 l-18 0 l0 0 ZM352 394 l0 18 l18 0 l0 -18 l-18 0 l0 0 ZM352 358 l0 18 l18 0 l0 -18 l-18 0 l0 0 ZM352 321 l0 18 l18 0 l0 -18 l-18 0 l0 0 ZM352 285 l0 18 l18 0 l0 -18 l-18 0 l0 0 ZM352 249 l0 18 l18 0 l0 -18 l-18 0 l0 0 ZM352 213 l0 18 l18 0 l0 -18 l-18 0 l0 0 ZM352 177 l0 18 l18 0 l0 -18 l-18 0 l0 0 ZM388 394 l0 18 l18 0 l0 -18 l-18 0 l0 0 ZM388 358 l0 18 l18 0 l0 -18 l-18 0 l0 0 ZM388 321 l0 18 l18 0 l0 -18 l-18 0 l0 0 ZM388 285 l0 18 l18 0 l0 -18 l-18 0 l0 0 ZM388 249 l0 18 l18 0 l0 -18 l-18 0 l0 0 ZM388 213 l0 18 l18 0 l0 -18 l-18 0 l0 0 ZM388 177 l0 18 l18 0 l0 -18 l-18 0 l0 0 Z"></path></symbol><symbol id="uni-58939" viewBox="0 -20 512 512"><path d="M306 496 l0 -512 l-306 0 l0 512 l120 0 l0 -82 l65 0 l0 82 l121 0 l0 0 ZM203 479 l0 -83 l-100 0 l0 83 l-86 0 l0 -478 l271 0 l0 478 l-85 0 l0 0 ZM132 34 l0 62 l42 0 l0 -62 l-42 0 l0 0 ZM132 116 l0 62 l42 0 l0 -62 l-42 0 l0 0 ZM132 199 l0 62 l42 0 l0 -62 l-42 0 l0 0 ZM132 281 l0 62 l42 0 l0 -62 l-42 0 l0 0 ZM50 34 l0 62 l41 0 l0 -62 l-41 0 l0 0 ZM50 116 l0 62 l41 0 l0 -62 l-41 0 l0 0 ZM50 199 l0 62 l41 0 l0 -62 l-41 0 l0 0 ZM50 281 l0 62 l41 0 l0 -62 l-41 0 l0 0 ZM215 281 l0 62 l41 0 l0 -62 l-41 0 l0 0 ZM215 199 l0 62 l41 0 l0 -62 l-41 0 l0 0 ZM215 116 l0 62 l41 0 l0 -62 l-41 0 l0 0 ZM215 34 l0 62 l41 0 l0 -62 l-41 0 l0 0 Z"></path></symbol><symbol id="uni-58940" viewBox="0 -20 512 512"><path d="M476 496 l0 -246 l57 0 l-79 -79 l0 -161 l-107 0 l0 55 l-81 -81 l-266 266 l57 0 l0 246 l151 0 l0 -179 l117 0 l0 179 l151 0 l0 0 ZM342 479 l0 -179 l-151 0 l0 179 l-117 0 l0 -246 l-32 0 l224 -225 l98 98 l0 -79 l72 0 l0 151 l55 55 l-32 0 l0 246 l-117 0 l0 0 Z"></path></symbol><symbol id="uni-58941" viewBox="0 -20 512 512"><path d="M390 496 q16 0 22.5 -6.5 q6.5 -6.5 8.5 -10.5 q1 -3 1 -12.5 q0 -9.5 -11 -20.5 l-21 -21 l228 0 q17 0 29 -12 q12 -12 12 -28 l0 -361 q0 -16 -12 -28 q-12 -12 -29 -12 l-578 0 q-16 0 -28 12 q-12 12 -12 28 l0 361 q0 16 12 28 q12 12 28 12 l229 0 l-21 21 q-11 11 -11.5 20.5 q-0.5 9.5 1.5 12.5 q2 4 8.5 10.5 q6.5 6.5 22.5 6.5 l121 0 l0 0 ZM40 1 l578 0 q10 0 17 7 q7 7 7 16 l0 361 q0 9 -7 16 q-7 7 -17 7 l-269 0 l50 49 q4 5 5.5 9 q1.5 4 0.5 7 q-1 3 -5 4.5 q-4 1.5 -10 1.5 l-121 0 q-6 0 -10 -1.5 q-4 -1.5 -6 -4.5 q-1 -3 1 -7 q2 -4 6 -9 l49 -49 l-269 0 q-9 0 -16 -7 q-7 -7 -7 -16 l0 -361 q0 -9 7 -16 q7 -7 16 -7 l0 0 ZM604 378 l0 -347 l-550 0 l0 347 l550 0 l0 0 ZM70 362 l0 -316 l518 0 l0 316 l-518 0 l0 0 Z"></path></symbol><symbol id="uni-58942" viewBox="0 -20 512 512"><path d="M525 496 q15 0 25.5 -10.5 q10.5 -10.5 10.5 -25.5 l0 -440 q0 -15 -10.5 -25.5 q-10.5 -10.5 -25.5 -10.5 l-489 0 q-15 0 -25.5 10.5 q-10.5 10.5 -10.5 25.5 l0 440 q0 15 10.5 25.5 q10.5 10.5 25.5 10.5 l489 0 l0 0 ZM36 1 l489 0 q8 0 13.5 5.5 q5.5 5.5 5.5 13.5 l0 440 q0 8 -5.5 13.5 q-5.5 5.5 -13.5 5.5 l-489 0 q-8 0 -13.5 -5.5 q-5.5 -5.5 -5.5 -13.5 l0 -440 q0 -8 5.5 -13.5 q5.5 -5.5 13.5 -5.5 l0 0 ZM483 266 q9 0 16 -7 q7 -7 7 -16 l0 -179 q0 -9 -7 -16 q-7 -7 -16 -7 l-249 0 q-10 0 -17 7 q-7 7 -7 16 l0 179 q0 9 7 16 q7 7 17 7 l249 0 l0 0 ZM234 54 l249 0 q4 0 7 3 q3 3 3 7 l0 179 q0 4 -3 7 q-3 3 -7 3 l-249 0 q-5 0 -8 -3 q-3 -3 -3 -7 l0 -179 q0 -4 3 -7 q3 -3 8 -3 l0 0 ZM129 436 q25 0 37.5 -6 q12.5 -6 17.5 -20 q2 -6 1 -36 q-1 -30 -4 -92 q-1 -17 -1.5 -31 q-0.5 -14 -0.5 -19 q0 -6 1.5 -24 q1.5 -18 3.5 -39 q5 -63 6 -85 q1 -22 -1 -27 q-4 -10 -15 -17 q-11 -7 -48 -7 q-28 0 -41.5 6 q-13.5 6 -16.5 19 q-1 6 0 33 q1 27 4 81 q1 20 2 37 q1 17 1 23 q0 11 -1 33.5 q-1 22.5 -3 46.5 q-3 51 -3.5 72 q-0.5 21 0.5 26 q4 14 18 20 q14 6 43 6 l0 0 ZM126 50 q31 0 38 4 q7 4 9 9 q1 6 -1.5 41 q-2.5 35 -4.5 64 q-2 22 -3.5 40 q-1.5 18 -1.5 24 q0 6 0.5 19.5 q0.5 13.5 1.5 31.5 q2 30 3.5 72.5 q1.5 42.5 0.5 49.5 q-2 4 -7.5 9 q-5.5 5 -31.5 5 q-31 0 -37 -4.5 q-6 -4.5 -8 -9.5 q-1 -5 1 -35 q2 -30 3 -57 q2 -25 3 -47 q1 -22 1 -34 q0 -6 -1 -23 q-1 -17 -2 -38 q-2 -30 -4 -66.5 q-2 -36.5 -1 -42.5 q1 -2 7 -7 q6 -5 35 -5 l0 0 ZM323 303 q0 -4 0 -2 q0 2 0 2 q0 -4 3 -7 q3 -3 7 -3 l136 0 q4 0 7 3 q3 3 3 7 q0 4 -3 7 q-3 3 -7 3 l-136 0 q-4 0 -7 -3 q-3 -3 -3 -7 l0 0 ZM323 366 q0 -4 0 -2 q0 2 0 2 q0 -4 3 -7 q3 -3 7 -3 l136 0 q4 0 7 3 q3 3 3 7 q0 4 -3 7 q-3 3 -7 3 l-136 0 q-4 0 -7 -3 q-3 -3 -3 -7 l0 0 ZM323 429 q0 -4 0 -2 q0 2 0 2 q0 -4 3 -7 q3 -3 7 -3 l136 0 q4 0 7 3 q3 3 3 7 q0 4 -3 7 q-3 3 -7 3 l-136 0 q-4 0 -7 -3 q-3 -3 -3 -7 l0 0 ZM245 372 q0 -4 0 -2 q0 2 0 2 q0 -4 2.5 -7 q2.5 -3 7.5 -3 l39 0 q4 0 7 3 q3 3 3 7 q0 4 -3 7 q-3 3 -7 3 l-39 0 q-5 0 -7.5 -3 q-2.5 -3 -2.5 -7 l0 0 ZM245 429 q0 -4 0 -2 q0 2 0 2 q0 -4 2.5 -7 q2.5 -3 7.5 -3 l39 0 q4 0 7 3 q3 3 3 7 q0 4 -3 7 q-3 3 -7 3 l-39 0 q-5 0 -7.5 -3 q-2.5 -3 -2.5 -7 l0 0 Z"></path></symbol><symbol id="uni-58943" viewBox="0 -20 512 512"><path d="M47 106 q0 0 -0.5 0 q-0.5 0 -0.5 0 q-2 -2 -3.5 -4.5 q-1.5 -2.5 -1.5 -5.5 l0 -3 q0 -3 1 -5 q1 -2 3 -4 q0 -1 0.5 -1.5 q0.5 -0.5 1.5 -1.5 l52 -52 q4 -4 9.5 -4 q5.5 0 8.5 4 l2 2 q4 4 4 9 q0 5 -4 9 l-30 31 l148 0 q5 0 9 3.5 q4 3.5 4 9.5 l0 3 q0 5 -4 8.5 q-4 3.5 -9 3.5 l-148 1 l30 30 q4 3 4 8.5 q0 5.5 -4 9.5 l-2 2 q-3 4 -8.5 4 q-5.5 0 -9.5 -4 l-52 -53 l0 0 ZM89 285 l30 30 q4 4 4 9.5 q0 5.5 -4 9.5 l-2 1 q-4 4 -9 4 q-5 0 -9 -4 l-53 -52 q0 0 0 -0.5 q0 -0.5 0 -0.5 q-2 -2 -3.5 -4.5 q-1.5 -2.5 -1.5 -5.5 l0 -3 q0 -2 1 -4.5 q1 -2.5 2 -4.5 q1 0 1.5 -1 q0.5 -1 0.5 -1 l53 -53 q3 -3 8.5 -3 q5.5 0 9.5 3 l2 2 q4 4 4 9.5 q0 5.5 -4 9.5 l-31 30 l148 0 q6 0 9.5 4 q3.5 4 3.5 9 l0 3 q0 5 -3.5 9 q-3.5 4 -9.5 4 l-147 0 l0 0 ZM376 150 l-31 -31 q-4 -4 -4 -9.5 q0 -5.5 4 -9.5 l2 -1 q4 -4 9 -4 q5 0 9 4 l52 52 q1 1 1.5 1.5 q0.5 0.5 0.5 1.5 q2 2 3 4 q1 2 1 5 l0 2 q0 3 -1.5 6 q-1.5 3 -3.5 4 q0 1 0 1 q0 0 -1 0 l-52 53 q-4 4 -9 4 q-5 0 -9 -4 l-2 -2 q-4 -4 -4 -9.5 q0 -5.5 4 -9.5 l30 -30 l-147 0 q-6 0 -9.5 -3.5 q-3.5 -3.5 -3.5 -9.5 l0 -2 q0 -6 3.5 -9.5 q3.5 -3.5 9.5 -3.5 l148 0 l0 0 ZM429 377 q9 7 11.5 19 q2.5 12 -4.5 22 q-7 10 -19 12.5 q-12 2.5 -22 -5.5 q-10 -7 -12 -19 q-2 -12 5 -22 q6 -10 18.5 -12.5 q12.5 -2.5 22.5 5.5 l0 0 ZM484 303 q10 0 17 7 q7 7 7 17 l0 145 q0 10 -7 17 q-7 7 -17 7 l-144 0 q-10 0 -17.5 -7 q-7.5 -7 -7.5 -17 l0 -145 q0 -10 7.5 -17 q7.5 -7 17.5 -7 l144 0 l0 0 ZM480 416 l15 -16 l-15 -15 l0 10 l-36 0 q18 -21 28 -38 q10 -17 5 -22 q-5 -5 -22 4.5 q-17 9.5 -38 28.5 l0 -37 l10 0 l-15 -15 l-15 15 l10 0 l0 37 q-21 -19 -37.5 -28.5 q-16.5 -9.5 -21.5 -5.5 q-5 5 4.5 22.5 q9.5 17.5 27.5 38.5 l-36 0 l0 -10 l-15 15 l15 16 l0 -11 l36 0 q-18 21 -27 37.5 q-9 16.5 -4 21.5 q5 4 21 -5 q16 -9 37 -27 l0 36 l-10 0 l15 16 l15 -16 l-10 0 l0 -36 q20 18 36.5 27.5 q16.5 9.5 21.5 4.5 q5 -5 -4 -21.5 q-9 -16.5 -27 -37.5 l36 0 l0 11 l0 0 ZM383 299 l-39 0 q-3 -3 -2.5 -7.5 q0.5 -4.5 3.5 -7.5 l2 -2 q4 -4 9.5 -4 q5.5 0 9.5 4 l17 17 l0 0 ZM312 333 l0 28 l-84 0 q-5 0 -9 -3.5 q-4 -3.5 -4 -9.5 l0 -2 q0 -6 4 -9.5 q4 -3.5 9 -3.5 l84 0 l0 0 ZM312 434 l0 16 l-280 0 q-13 0 -22.5 -9.5 q-9.5 -9.5 -9.5 -22.5 l0 -402 q0 -13 9.5 -22.5 q9.5 -9.5 22.5 -9.5 l400 0 q13 0 22.5 9.5 q9.5 9.5 9.5 22.5 l0 283 l-16 0 l0 -283 q0 -6 -5 -11 q-5 -5 -11 -5 l-400 0 q-6 0 -11 5 q-5 5 -5 11 l0 402 q0 6 5 11 q5 5 11 5 l280 0 l0 0 Z"></path></symbol><symbol id="uni-58946" viewBox="0 -20 512 512"><path d="M305 496 q13 0 23 -9.5 q10 -9.5 10 -23.5 l0 -446 q0 -14 -10 -23.5 q-10 -9.5 -23 -9.5 l-272 0 q-14 0 -23.5 9.5 q-9.5 9.5 -9.5 23.5 l0 446 q0 14 9.5 23.5 q9.5 9.5 23.5 9.5 l272 0 l0 0 ZM33 0 l272 0 q7 0 11.5 5 q4.5 5 4.5 12 l0 446 q0 7 -4.5 12 q-4.5 5 -11.5 5 l-272 0 q-7 0 -12 -5 q-5 -5 -5 -12 l0 -446 q0 -7 5 -12 q5 -5 12 -5 l0 0 ZM56 116 q0 -3 0 -1.5 q0 1.5 0 1.5 q0 -3 2 -5.5 q2 -2.5 5 -2.5 l211 0 q3 0 5.5 2.5 q2.5 2.5 2.5 5.5 q0 3 -2.5 5 q-2.5 2 -5.5 2 l-211 0 q-3 0 -5 -2 q-2 -2 -2 -5 l0 0 ZM56 60 q0 -4 0 -2 q0 2 0 2 q0 -4 2 -6 q2 -2 5 -2 l211 0 q3 0 5.5 2 q2.5 2 2.5 6 q0 3 -2.5 5 q-2.5 2 -5.5 2 l-211 0 q-3 0 -5 -2 q-2 -2 -2 -5 l0 0 ZM56 172 q0 -3 0 -1.5 q0 1.5 0 1.5 q0 -3 2 -5.5 q2 -2.5 5 -2.5 l211 0 q3 0 5.5 2.5 q2.5 2.5 2.5 5.5 q0 3 -2.5 5 q-2.5 2 -5.5 2 l-211 0 q-3 0 -5 -2 q-2 -2 -2 -5 l0 0 ZM56 228 q0 -3 0 -1.5 q0 1.5 0 1.5 q0 -3 2 -5.5 q2 -2.5 5 -2.5 l211 0 q3 0 5.5 2.5 q2.5 2.5 2.5 5.5 q0 3 -2.5 5 q-2.5 2 -5.5 2 l-211 0 q-3 0 -5 -2 q-2 -2 -2 -5 l0 0 ZM236 279 q0 -3 0 -1.5 q0 1.5 0 1.5 q0 -3 2 -5.5 q2 -2.5 5 -2.5 l14 0 q3 0 5.5 2.5 q2.5 2.5 2.5 5.5 q0 3 -2.5 5 q-2.5 2 -5.5 2 l-14 0 q-3 0 -5 -2 q-2 -2 -2 -5 l0 0 ZM193 279 q0 -3 0 -1.5 q0 1.5 0 1.5 q0 -3 2.5 -5.5 q2.5 -2.5 5.5 -2.5 l14 0 q3 0 5 2.5 q2 2.5 2 5.5 q0 3 -2 5 q-2 2 -5 2 l-14 0 q-3 0 -5.5 -2 q-2.5 -2 -2.5 -5 l0 0 ZM74 387 l0 -23 q0 -2 2 -4 q2 -2 4 -2 q3 0 4.5 2 q1.5 2 1.5 4 l0 23 q0 3 -1.5 4.5 q-1.5 1.5 -4.5 1.5 q-2 0 -4 -1.5 q-2 -1.5 -2 -4.5 l0 0 ZM109 387 l0 -23 q0 -2 1.5 -4 q1.5 -2 4.5 -2 q2 0 4 2 q2 2 2 4 l0 23 q0 3 -2 4.5 q-2 1.5 -4 1.5 q-3 0 -4.5 -1.5 q-1.5 -1.5 -1.5 -4.5 l0 0 ZM143 387 l0 -23 q0 -2 2 -4 q2 -2 4 -2 q3 0 4.5 2 q1.5 2 1.5 4 l0 23 q0 3 -1.5 4.5 q-1.5 1.5 -4.5 1.5 q-2 0 -4 -1.5 q-2 -1.5 -2 -4.5 l0 0 ZM177 387 l0 -23 q0 -2 2 -4 q2 -2 4 -2 q3 0 4.5 2 q1.5 2 1.5 4 l0 23 q0 3 -1.5 4.5 q-1.5 1.5 -4.5 1.5 q-2 0 -4 -1.5 q-2 -1.5 -2 -4.5 l0 0 ZM212 387 l0 -23 q0 -2 1.5 -4 q1.5 -2 4.5 -2 q2 0 4 2 q2 2 2 4 l0 23 q0 3 -2 4.5 q-2 1.5 -4 1.5 q-3 0 -4.5 -1.5 q-1.5 -1.5 -1.5 -4.5 l0 0 ZM246 387 l0 -23 q0 -2 2 -4 q2 -2 4 -2 q3 0 4.5 2 q1.5 2 1.5 4 l0 23 q0 3 -1.5 4.5 q-1.5 1.5 -4.5 1.5 q-2 0 -4 -1.5 q-2 -1.5 -2 -4.5 l0 0 Z"></path></symbol><symbol id="uni-58950" viewBox="0 -20 512 512"><path d="M256 -16 q53 0 99.5 20 q46.5 20 81.5 55 q35 35 55 81.5 q20 46.5 20 99.5 q0 53 -20 99.5 q-20 46.5 -55 81.5 q-35 35 -81.5 55 q-46.5 20 -99.5 20 q-53 0 -99.5 -20 q-46.5 -20 -81.5 -55 q-35 -35 -55 -81.5 q-20 -46.5 -20 -99.5 q0 -53 20 -99.5 q20 -46.5 55 -81.5 q35 -35 81.5 -55 q46.5 -20 99.5 -20 l0 0 ZM320 179 q-1 0 -1.5 1 q-0.5 1 -0.5 2 q0 2 0.5 2.5 q0.5 0.5 1.5 1.5 q1 1 2 1.5 q1 0.5 2 0.5 q1 0 2 -0.5 q1 -0.5 2 -1.5 l42 -42 q1 -1 1.5 -2 q0.5 -1 0.5 -2 q0 -1 -0.5 -2 q-0.5 -1 -1.5 -2 q-1 -1 -1.5 -1.5 q-0.5 -0.5 -2.5 -0.5 q-1 0 -2 0.5 q-1 0.5 -1 1.5 l-43 43 l0 0 ZM292 118 l0 54 q0 1 0.5 2 q0.5 1 0.5 2 q1 0 2 0.5 q1 0.5 2 0.5 q1 0 2 -0.5 q1 -0.5 2 -0.5 q1 -1 1 -2 q0 -1 0 -2 l0 -54 q0 -1 0 -2 q0 -1 -1 -1 q-1 -1 -2 -1.5 q-1 -0.5 -2 -0.5 q-1 0 -2 0.5 q-1 0.5 -2 1.5 q0 0 -0.5 1 q-0.5 1 -0.5 2 l0 0 ZM117 298 q1 1 2 1.5 q1 0.5 2 0.5 l54 0 q1 0 2 -0.5 q1 -0.5 1 -1.5 q1 -1 1.5 -1.5 q0.5 -0.5 0.5 -2.5 q0 -1 -0.5 -2 q-0.5 -1 -1.5 -1 q0 -1 -1 -1.5 q-1 -0.5 -3 -0.5 l-53 0 q-1 0 -2 0.5 q-1 0.5 -2 1.5 q0 0 -0.5 1 q-0.5 1 -0.5 2 q0 2 0.5 2.5 q0.5 0.5 0.5 1.5 l0 0 ZM189 325 q1 -1 1 -2 q0 -1 0 -2 q0 -1 0 -2 q0 -1 -1 -2 q-1 -1 -2 -1 q-1 0 -2 0 q-1 0 -2 0 q-1 0 -2 1 l-42 43 q-1 1 -1.5 2 q-0.5 1 -0.5 2 q0 1 0.5 2 q0.5 1 1.5 2 q1 0 1.5 0.5 q0.5 0.5 1.5 0.5 q2 0 3 -0.5 q1 -0.5 1 -0.5 l43 -43 l0 0 ZM155 199 q-2 -2 -3 -5 q-1 -3 -1 -6 q0 -3 1 -6 q1 -3 3 -5 l25 -25 q2 -2 5 -3 q3 -1 6 -1 q3 0 6 1 q3 1 5 3 l46 46 l40 -3 q-2 -3 -4 -5 q-2 -2 -3 -4 l-56 -56 q-7 -7 -15.5 -10.5 q-8.5 -3.5 -18.5 -3.5 q-10 0 -18.5 3.5 q-8.5 3.5 -15.5 10.5 l-24 24 q-7 7 -10.5 15.5 q-3.5 8.5 -3.5 18.5 q0 10 3.5 18.5 q3.5 8.5 10.5 15.5 l55 56 q2 1 4.5 3 q2.5 2 5.5 4 l3 -40 l-46 -46 l0 0 ZM217 385 l0 -53 q0 -1 -0.5 -2 q-0.5 -1 -0.5 -2 q-1 -1 -2 -1.5 q-1 -0.5 -2 -0.5 q-1 0 -2 0.5 q-1 0.5 -2 1.5 q-1 1 -1.5 2 q-0.5 1 -0.5 2 l0 53 q0 1 0.5 2 q0.5 1 1.5 2 q1 1 2 1 q1 0 2 0 q1 0 2 0 q1 0 2 -1 q0 -1 0.5 -2 q0.5 -1 0.5 -2 l0 0 ZM376 350 q7 -7 10.5 -15.5 q3.5 -8.5 3.5 -18.5 q0 -10 -3.5 -18.5 q-3.5 -8.5 -10.5 -15.5 l-56 -56 q-1 -2 -3.5 -3.5 q-2.5 -1.5 -5.5 -3.5 l-3 40 l46 45 q2 3 3 5.5 q1 2.5 1 6.5 q0 3 -1 6 q-1 3 -3 5 l-25 24 q-2 2 -5 3.5 q-3 1.5 -6 1.5 q-3 0 -6 -1.5 q-3 -1.5 -5 -3.5 l-46 -46 l-40 3 q2 3 4 5.5 q2 2.5 3 4.5 l56 56 q7 7 15.5 10.5 q8.5 3.5 18.5 3.5 q10 0 18.5 -3.5 q8.5 -3.5 15.5 -10.5 l24 -24 l0 0 ZM392 213 q0 -1 0.5 -2 q0.5 -1 0.5 -2 q0 -1 -0.5 -2 q-0.5 -1 -0.5 -2 q-1 0 -2 -0.5 q-1 -0.5 -2 -0.5 l-54 0 q-1 0 -2 0.5 q-1 0.5 -1 0.5 q-1 1 -1.5 2 q-0.5 1 -0.5 2 q0 1 0.5 2 q0.5 1 1.5 2 q0 1 1 1 q1 0 2 0 l54 0 q1 0 2 0 q1 0 2 -1 l0 0 Z"></path></symbol><symbol id="uni-58951" viewBox="0 -20 512 512"><path d="M112 160 l0 64 l176 0 l0 -64 l-176 0 l0 0 ZM112 320 l0 64 l176 0 l0 -64 l-176 0 l0 0 ZM379 -16 q8 0 14.5 6 q6.5 6 6.5 14 l0 470 q0 9 -6.5 15.5 q-6.5 6.5 -14.5 6.5 l-358 0 q-9 0 -15 -6.5 q-6 -6.5 -6 -15.5 l0 -470 q0 -8 6 -14 q6 -6 15 -6 l358 0 l0 0 ZM376 144 l-168 0 l0 -64 l168 0 q3 0 5.5 -2.5 q2.5 -2.5 2.5 -5.5 q0 -3 -2.5 -5.5 q-2.5 -2.5 -5.5 -2.5 l-72 0 l0 -56 q0 -3 -2.5 -5.5 q-2.5 -2.5 -5.5 -2.5 q-3 0 -5.5 2.5 q-2.5 2.5 -2.5 5.5 l0 56 l-176 0 l0 -56 q0 -3 -2.5 -5.5 q-2.5 -2.5 -5.5 -2.5 q-3 0 -5.5 2.5 q-2.5 2.5 -2.5 5.5 l0 56 l-72 0 q-3 0 -5.5 2.5 q-2.5 2.5 -2.5 5.5 q0 3 2.5 5.5 q2.5 2.5 5.5 2.5 l168 0 l0 64 l-168 0 q-3 0 -5.5 2.5 q-2.5 2.5 -2.5 5.5 q0 3 2.5 5.5 q2.5 2.5 5.5 2.5 l72 0 l0 64 l-72 0 q-3 0 -5.5 2.5 q-2.5 2.5 -2.5 5.5 q0 3 2.5 5.5 q2.5 2.5 5.5 2.5 l168 0 l0 64 l-168 0 q-3 0 -5.5 2.5 q-2.5 2.5 -2.5 5.5 q0 3 2.5 5.5 q2.5 2.5 5.5 2.5 l72 0 l0 64 l-72 0 q-3 0 -5.5 2.5 q-2.5 2.5 -2.5 5.5 q0 3 2.5 5.5 q2.5 2.5 5.5 2.5 l168 0 l0 64 l-168 0 q-3 0 -5.5 2.5 q-2.5 2.5 -2.5 5.5 q0 3 2.5 5.5 q2.5 2.5 5.5 2.5 l352 0 q3 0 5.5 -2.5 q2.5 -2.5 2.5 -5.5 q0 -3 -2.5 -5.5 q-2.5 -2.5 -5.5 -2.5 l-168 0 l0 -64 l168 0 q3 0 5.5 -2.5 q2.5 -2.5 2.5 -5.5 q0 -3 -2.5 -5.5 q-2.5 -2.5 -5.5 -2.5 l-72 0 l0 -64 l72 0 q3 0 5.5 -2.5 q2.5 -2.5 2.5 -5.5 q0 -3 -2.5 -5.5 q-2.5 -2.5 -5.5 -2.5 l-168 0 l0 -64 l168 0 q3 0 5.5 -2.5 q2.5 -2.5 2.5 -5.5 q0 -3 -2.5 -5.5 q-2.5 -2.5 -5.5 -2.5 l-72 0 l0 -64 l72 0 q3 0 5.5 -2.5 q2.5 -2.5 2.5 -5.5 q0 -3 -2.5 -5.5 q-2.5 -2.5 -5.5 -2.5 l0 0 Z"></path></symbol><symbol id="uni-58952" viewBox="0 -20 512 512"><path d="M400 4 l0 470 q0 9 -6.5 15.5 q-6.5 6.5 -14.5 6.5 l-358 0 q-9 0 -15 -6.5 q-6 -6.5 -6 -15.5 l0 -470 q0 -8 6 -14 q6 -6 15 -6 l358 0 q8 0 14.5 6 q6.5 6 6.5 14 l0 0 Z"></path></symbol><symbol id="uni-58953" viewBox="0 -20 512 512"><path d="M374 496 q12 0 21 -9 q9 -9 9 -22 l0 -452 q0 -12 -8.5 -20.5 q-8.5 -8.5 -21.5 -8.5 l-344 0 q-13 0 -21.5 8.5 q-8.5 8.5 -8.5 20.5 l0 452 q0 13 9 22 q9 9 21 9 l344 0 l0 0 ZM30 3 l344 0 q5 0 8 3 q3 3 3 7 l0 452 q0 5 -3.5 8.5 q-3.5 3.5 -7.5 3.5 l-344 0 q-5 0 -8 -3.5 q-3 -3.5 -3 -8.5 l0 -452 q0 -4 3 -7 q3 -3 8 -3 l0 0 ZM32 86 q-3 0 -5 -2.5 q-2 -2.5 -2 -5.5 q0 -3 2 -5.5 q2 -2.5 5 -2.5 l340 0 q3 0 5 2.5 q2 2.5 2 5.5 q0 3 -2 5.5 q-2 2.5 -5 2.5 l-340 0 l0 0 ZM32 163 q-3 0 -5 -2.5 q-2 -2.5 -2 -5.5 q0 -3 2 -5 q2 -2 5 -2 l340 0 q3 0 5 2 q2 2 2 5 q0 3 -2 5.5 q-2 2.5 -5 2.5 l-340 0 l0 0 ZM102 16 q0 -3 2 -5 q2 -2 6 -2 q3 0 5 2 q2 2 2 5 l0 62 q0 3 -2 5.5 q-2 2.5 -5 2.5 q-4 0 -6 -2.5 q-2 -2.5 -2 -5.5 l0 -62 l0 0 ZM194 78 q0 -3 2.5 -5.5 q2.5 -2.5 5.5 -2.5 q3 0 5.5 2.5 q2.5 2.5 2.5 5.5 l0 77 q0 3 -2.5 5.5 q-2.5 2.5 -5.5 2.5 q-3 0 -5.5 -2.5 q-2.5 -2.5 -2.5 -5.5 l0 -77 l0 0 ZM287 16 q0 -3 2 -5 q2 -2 6 -2 q3 0 5 2 q2 2 2 5 l0 62 q0 3 -2 5.5 q-2 2.5 -5 2.5 q-4 0 -6 -2.5 q-2 -2.5 -2 -5.5 l0 -62 l0 0 ZM32 240 q-3 0 -5 -2.5 q-2 -2.5 -2 -5.5 q0 -3 2 -5 q2 -2 5 -2 l340 0 q3 0 5 2 q2 2 2 5 q0 3 -2 5.5 q-2 2.5 -5 2.5 l-340 0 l0 0 ZM102 155 q0 -3 2 -5 q2 -2 6 -2 q3 0 5 2 q2 2 2 5 l0 77 q0 3 -2 5.5 q-2 2.5 -5 2.5 q-4 0 -6 -2 q-2 -2 -2 -6 l0 -77 l0 0 ZM194 232 q0 -3 2.5 -5 q2.5 -2 5.5 -2 q3 0 5.5 2 q2.5 2 2.5 5 l0 70 q0 3 -2.5 5 q-2.5 2 -5.5 2 q-3 0 -5.5 -2 q-2.5 -2 -2.5 -5 l0 -70 l0 0 ZM287 155 q0 -3 2 -5 q2 -2 6 -2 q3 0 5 2 q2 2 2 5 l0 77 q0 3 -2 5.5 q-2 2.5 -5 2.5 q-4 0 -6 -2 q-2 -2 -2 -6 l0 -77 l0 0 ZM32 317 q-3 0 -5 -2 q-2 -2 -2 -6 q0 -3 2 -5 q2 -2 5 -2 l340 0 q3 0 5 2 q2 2 2 5 q0 4 -2 6 q-2 2 -5 2 l-340 0 l0 0 ZM32 394 q-3 0 -5 -2 q-2 -2 -2 -6 q0 -3 2 -5 q2 -2 5 -2 l340 0 q3 0 5 2 q2 2 2 5 q0 4 -2 6 q-2 2 -5 2 l-340 0 l0 0 ZM32 471 q-3 0 -5 -2 q-2 -2 -2 -5 q0 -4 2 -6 q2 -2 5 -2 l340 0 q3 0 5 2 q2 2 2 6 q0 3 -2 5 q-2 2 -5 2 l-340 0 l0 0 ZM102 309 q0 -3 2 -5 q2 -2 6 -2 q3 0 5 2 q2 2 2 5 l0 77 q0 4 -2 6 q-2 2 -5 2 q-4 0 -6 -2 q-2 -2 -2 -6 l0 -77 l0 0 ZM194 386 q0 -3 2.5 -5 q2.5 -2 5.5 -2 q3 0 5.5 2 q2.5 2 2.5 5 l0 78 q0 3 -2.5 5 q-2.5 2 -5.5 2 q-3 0 -5.5 -2 q-2.5 -2 -2.5 -5 l0 -78 l0 0 ZM287 309 q0 -3 2 -5 q2 -2 6 -2 q3 0 5 2 q2 2 2 5 l0 77 q0 4 -2 6 q-2 2 -5 2 q-4 0 -6 -2 q-2 -2 -2 -6 l0 -77 l0 0 Z"></path></symbol><symbol id="uni-58954" viewBox="0 -20 512 512"><path d="M256 496 q53 0 99.5 -20 q46.5 -20 81.5 -55 q35 -35 55 -81.5 q20 -46.5 20 -99.5 q0 -53 -20 -99.5 q-20 -46.5 -55 -81.5 q-35 -35 -81.5 -55 q-46.5 -20 -99.5 -20 q-53 0 -99.5 20 q-46.5 20 -81.5 55 q-35 35 -55 81.5 q-20 46.5 -20 99.5 q0 53 20 99.5 q20 46.5 55 81.5 q35 35 81.5 55 q46.5 20 99.5 20 l0 0 ZM256 -2 q50 0 94 19 q44 19 77 52 q33 33 52 77 q19 44 19 94 q0 50 -19 94 q-19 44 -52 77 q-33 33 -77 52 q-44 19 -94 19 q-50 0 -94 -19 q-44 -19 -77 -52 q-33 -33 -52 -77 q-19 -44 -19 -94 q0 -50 19 -94 q19 -44 52 -77 q33 -33 77 -52 q44 -19 94 -19 l0 0 ZM292 359 q0 -14 -10 -24.5 q-10 -10.5 -25 -10.5 q-14 0 -24.5 10.5 q-10.5 10.5 -10.5 24.5 q0 15 10.5 25 q10.5 10 24.5 10 q15 0 25 -10 q10 -10 10 -25 l0 0 ZM257 77 q17 0 32.5 6 q15.5 6 27.5 17 q11 12 17.5 27.5 q6.5 15.5 6.5 32.5 q0 27 -13 44.5 q-13 17.5 -24 28.5 q-13 11 -18.5 18.5 q-5.5 7.5 -5.5 16.5 q0 3 0 4 q0 1 0 1 q0 4 -2 8.5 q-2 4.5 -5 7.5 q-3 3 -7 5 q-4 2 -9 2 q-5 0 -9 -2 q-4 -2 -7 -5 q-3 -3 -5 -7.5 q-2 -4.5 -2 -8.5 q0 0 0 0 q0 0 0 -1 q0 0 0 -1 q0 -1 0 -3 q0 -26 13.5 -42 q13.5 -16 24.5 -27 q11 -11 17 -19 q6 -8 6 -20 q0 -17 -10 -27 q-10 -10 -28 -10 q-10 0 -15.5 4 q-5.5 4 -11.5 11 q-5 7 -8 14.5 q-3 7.5 -3 10.5 q0 1 -0.5 1.5 q-0.5 0.5 -0.5 0.5 l0 0 q-1 9 -9 14.5 q-8 5.5 -17 3.5 q-10 -2 -15 -10 q-5 -8 -4 -17 q1 -1 4 -12 q3 -11 11 -26 q8 -14 25.5 -27.5 q17.5 -13.5 43.5 -13.5 l0 0 Z"></path></symbol><symbol id="uni-58955" viewBox="0 -20 512 512"><path d="M256 496 q53 0 99.5 -20 q46.5 -20 81.5 -55 q35 -35 55 -81.5 q20 -46.5 20 -99.5 q0 -53 -20 -99.5 q-20 -46.5 -55 -81.5 q-35 -35 -81.5 -55 q-46.5 -20 -99.5 -20 q-53 0 -99.5 20 q-46.5 20 -81.5 55 q-35 35 -55 81.5 q-20 46.5 -20 99.5 q0 53 20 99.5 q20 46.5 55 81.5 q35 35 81.5 55 q46.5 20 99.5 20 l0 0 ZM256 1 q49 0 92.5 19 q43.5 19 76.5 51 q32 33 51 76.5 q19 43.5 19 92.5 q0 49 -19 92.5 q-19 43.5 -51 76.5 q-33 32 -76.5 51 q-43.5 19 -92.5 19 q-49 0 -92.5 -19 q-43.5 -19 -76.5 -51 q-32 -33 -51 -76.5 q-19 -43.5 -19 -92.5 q0 -49 19 -92.5 q19 -43.5 51 -76.5 q33 -32 76.5 -51 q43.5 -19 92.5 -19 l0 0 ZM181 289 q-1 -1 -2 -1.5 q-1 -0.5 -2 -0.5 l-51 0 q-1 0 -2 0.5 q-1 0.5 -2 1.5 q-1 1 -1 1.5 q0 0.5 0 2.5 q0 1 0 2 q0 1 1 1 q1 1 2 1.5 q1 0.5 2 0.5 l51 0 q1 0 2 -0.5 q1 -0.5 2 -1.5 q1 0 1 -1 q0 -1 0 -2 q0 -2 0 -2.5 q0 -0.5 -1 -1.5 l0 0 ZM287 197 q-2 -3 -4 -5.5 q-2 -2.5 -3 -3.5 l-54 -54 q-7 -7 -15 -10.5 q-8 -3.5 -18 -3.5 q-9 0 -17.5 3.5 q-8.5 3.5 -15.5 9.5 l-23 24 q-7 7 -10.5 15 q-3.5 8 -3.5 18 q0 9 3.5 17 q3.5 8 10.5 15 l54 54 q1 2 3.5 4 q2.5 2 5.5 3 l3 -38 l-44 -45 q-3 -2 -4 -4.5 q-1 -2.5 -1 -5.5 q0 -4 1 -6.5 q1 -2.5 4 -4.5 l23 -24 q3 -2 5.5 -3 q2.5 -1 5.5 -1 q3 0 6 1 q3 1 5 3 l44 45 l39 -3 l0 0 ZM191 322 q1 -1 1.5 -2 q0.5 -1 0.5 -2 q0 -1 -0.5 -2 q-0.5 -1 -1.5 -1 q-1 -1 -1.5 -1.5 q-0.5 -0.5 -1.5 -0.5 q-2 0 -2.5 0.5 q-0.5 0.5 -1.5 1.5 l-41 41 q-1 1 -1.5 2 q-0.5 1 -0.5 2 q0 1 0.5 1.5 q0.5 0.5 1.5 1.5 q1 1 1.5 1.5 q0.5 0.5 1.5 0.5 q1 0 2 -0.5 q1 -0.5 2 -1.5 l41 -41 l0 0 ZM218 329 q0 -2 0 -2.5 q0 -0.5 -1 -1.5 q-1 -1 -2 -1.5 q-1 -0.5 -2 -0.5 q-1 0 -2 0.5 q-1 0.5 -1 1.5 q-1 1 -1.5 1.5 q-0.5 0.5 -0.5 2.5 l0 51 q0 1 0.5 2 q0.5 1 1.5 2 q0 1 1 1 q1 0 2 0 q1 0 2 0 q1 0 2 -1 q1 -1 1 -2 q0 -1 0 -2 l0 -51 l0 0 ZM386 313 q0 -9 -3.5 -17.5 q-3.5 -8.5 -10.5 -15.5 l-54 -54 q-1 -1 -3.5 -3 q-2.5 -2 -5.5 -4 l-3 39 l44 44 q3 2 4 5 q1 3 1 6 q0 3 -1 6 q-1 3 -4 5 l-23 23 q-2 3 -5 4 q-3 1 -6 1 q-3 0 -6 -1.5 q-3 -1.5 -5 -3.5 l-44 -44 l-39 3 q2 3 4 5 q2 2 3 4 l54 54 q7 7 15 10.5 q8 3.5 18 3.5 q9 0 17.5 -3.5 q8.5 -3.5 15.5 -10.5 l23 -23 q7 -7 10.5 -15 q3.5 -8 3.5 -18 l0 0 ZM301 123 q0 -2 -0.5 -2.5 q-0.5 -0.5 -1.5 -1.5 q0 -1 -1 -1.5 q-1 -0.5 -2 -0.5 q-1 0 -2 0.5 q-1 0.5 -2 1.5 q-1 1 -1 1.5 q0 0.5 0 2.5 l0 51 q0 1 0 2 q0 1 1 2 q1 1 2 1 q1 0 2 0 q1 0 2 0 q1 0 1 -1 q1 -1 1.5 -2 q0.5 -1 0.5 -2 l0 -51 l0 0 ZM366 147 q1 -1 1.5 -2 q0.5 -1 0.5 -2 q0 -1 -0.5 -2 q-0.5 -1 -1.5 -2 q0 0 -1 -0.5 q-1 -0.5 -2 -0.5 q-1 0 -2 0.5 q-1 0.5 -2 0.5 l-41 42 q-1 1 -1.5 1.5 q-0.5 0.5 -0.5 1.5 q0 1 0.5 2 q0.5 1 1.5 2 q1 1 2 1.5 q1 0.5 1 0.5 q1 0 2 -0.5 q1 -0.5 2 -1.5 l41 -41 l0 0 ZM387 206 q-1 0 -2 -0.5 q-1 -0.5 -2 -0.5 l-51 0 q-1 0 -2 0.5 q-1 0.5 -2 0.5 q-1 1 -1 2 q0 1 0 2 q0 1 0 2 q0 1 1 2 q1 1 2 1 q1 0 2 0 l51 0 q1 0 2 0 q1 0 2 -1 q1 -1 1 -2 q0 -1 0 -2 q0 -1 0 -2 q0 -1 -1 -2 l0 0 Z"></path></symbol><symbol id="uni-58956" viewBox="0 -20 512 512"><path d="M625 -16 q12 0 21 9 q9 9 9 21 l0 341 q0 10 -5.5 17.5 q-5.5 7.5 -14.5 11.5 q-3 6 -8 11.5 q-5 5.5 -11 7.5 q-2 13 -11.5 21.5 q-9.5 8.5 -22.5 8.5 l-153 0 q4 7 0.5 11.5 q-3.5 4.5 -14.5 4.5 l-4 0 q2 4 2 6.5 q0 2.5 -1 4.5 q-1 3 -4.5 6 q-3.5 3 -13.5 3 l-9 0 q6 6 6.5 11 q0.5 5 -0.5 7 q-1 3 -4.5 6 q-3.5 3 -13.5 3 l-130 0 q-9 0 -13 -3 q-4 -3 -5 -6 q-1 -2 -0.5 -7 q0.5 -5 7.5 -12 l13 -13 q0 -3 1.5 -6.5 q1.5 -3.5 6.5 -7.5 l8 -8 l-227 0 q-14 0 -24 -10 q-10 -10 -10 -24 l0 -341 q0 -11 6 -19.5 q6 -8.5 15 -12.5 q2 -11 10.5 -19.5 q8.5 -8.5 20.5 -9.5 q4 -6 10.5 -9.5 q6.5 -3.5 13.5 -3.5 l549 0 l0 0 Z"></path></symbol><symbol id="uni-58957" viewBox="0 -20 512 512"><path d="M389 484 q1 -1 0 -3.5 q-1 -2.5 -4 -5.5 l10 0 q2 4 2 7.5 q0 3.5 -1 4.5 q-1 3 -4.5 6 q-3.5 3 -13.5 3 l-132 0 q-9 0 -13 -3 q-4 -3 -5 -6 q-1 -2 -0.5 -7 q0.5 -5 7.5 -12 l35 -36 l-236 0 q-14 0 -24 -10 q-10 -10 -10 -24 l0 -346 q0 -11 6.5 -20 q6.5 -9 16.5 -12 q-1 2 -1.5 4.5 q-0.5 2.5 -0.5 4.5 q-6 4 -9.5 10 q-3.5 6 -3.5 13 l0 346 q0 11 7.5 19 q7.5 8 18.5 8 l244 0 l-22 22 q-6 6 -7 10.5 q-1 4.5 -1 7.5 l-8 8 q-3 4 -4.5 7 q-1.5 3 -0.5 4 q1 2 4 3 q3 1 7 1 l132 0 q4 0 7.5 -1 q3.5 -1 3.5 -3 l0 0 ZM590 425 q7 0 13 -4 q6 -4 10 -10 q2 0 4.5 -0.5 q2.5 -0.5 4.5 -1.5 q-3 10 -12 16.5 q-9 6.5 -20 6.5 l-194 0 l-8 -7 l202 0 l0 0 ZM256 463 q1 2 4 3 q3 1 8 1 l110 0 l6 6 q0 1 0.5 1 q0.5 0 0.5 1 l-117 0 q-10 0 -14 -3 q-4 -3 -5 -6 q0 0 0 -0.5 q0 -0.5 -1 -0.5 l41 -40 l-11 0 l14 -14 l-236 0 q-15 0 -25 -10 q-10 -10 -10 -24 l0 -346 q0 0 0 -0.5 q0 -0.5 0 -1.5 q2 -1 4 -2 q2 -1 4 -1 q0 1 0 2.5 q0 1.5 0 2.5 l0 346 q0 11 7.5 18.5 q7.5 7.5 19.5 7.5 l254 0 l-49 49 q-3 3 -4.5 6 q-1.5 3 -0.5 5 l0 0 ZM611 -3 q14 0 24 10 q10 10 10 24 l0 346 q0 11 -6.5 20 q-6.5 9 -16.5 12 q1 -2 1.5 -4.5 q0.5 -2.5 0.5 -4.5 q6 -4 10 -10 q4 -6 4 -13 l0 -346 q0 -11 -8 -19 q-8 -8 -19 -8 l-555 0 q-8 0 -14 4 q-6 4 -10 10 q-2 0 -4.5 0.5 q-2.5 0.5 -4.5 1.5 q4 -10 12.5 -16.5 q8.5 -6.5 20.5 -6.5 l555 0 l0 0 ZM356 403 l255 0 q1 0 2.5 0 q1.5 0 2.5 0 q-1 2 -1.5 4 q-0.5 2 -1.5 4 q-1 0 -1.5 0 q-0.5 0 -0.5 0 l-236 0 l13 14 l-11 0 l-21 -22 l0 0 ZM405 452 l-20 -20 l11 0 l14 15 q7 7 8 12 q1 5 0 7 q-1 3 -5 6 q-4 3 -14 3 l-4 0 q-1 -2 -2.5 -3.5 q-1.5 -1.5 -3.5 -3.5 l0 -1 l10 0 q4 0 7.5 -1 q3.5 -1 3.5 -3 q1 -2 -0.5 -5 q-1.5 -3 -4.5 -6 l0 0 ZM388 425 l8 7 l-11 0 l-8 -7 l11 0 ZM278 425 l11 0 l-41 40 q0 -3 1 -7.5 q1 -4.5 7 -10.5 l22 -22 l0 0 ZM389 467 l0 1 q2 2 3.5 3.5 q1.5 1.5 2.5 3.5 l-10 0 q0 -1 -0.5 -1 q-0.5 0 -0.5 -1 l-6 -6 l11 0 l0 0 ZM29 26 q-2 0 -4 1 q-2 1 -4 2 q1 -2 1 -4.5 q0 -2.5 1 -4.5 q2 -1 4.5 -1.5 q2.5 -0.5 4.5 -0.5 q-1 2 -1.5 4 q-0.5 2 -1.5 4 l0 0 ZM616 403 q2 0 4 -1 q2 -1 4 -2 q0 2 -0.5 4.5 q-0.5 2.5 -1.5 4.5 q-2 1 -4.5 1.5 q-2.5 0.5 -4.5 0.5 q1 -2 1.5 -4 q0.5 -2 1.5 -4 l0 0 ZM632 -16 q13 0 22 9 q9 9 9 22 l0 345 q0 13 -9 22 q-9 9 -22 9 l-245 0 l42 42 q9 9 6.5 15 q-2.5 6 -15.5 6 l-131 0 q-12 0 -15 -6 q-3 -6 6 -15 l43 -42 l-246 0 q-12 0 -21 -9 q-9 -9 -9 -22 l0 -345 q0 -13 9 -22 q9 -9 21 -9 l555 0 l0 0 ZM611 346 l0 -318 l-513 0 l0 318 l513 0 l0 0 Z"></path></symbol><symbol id="uni-58958" viewBox="0 -20 512 512"><path d="M638 -16 q13 0 23 10 q10 10 10 23 l0 376 q0 14 -10 24 q-10 10 -23 10 l-267 0 l46 45 q9 10 6.5 17 q-2.5 7 -16.5 7 l-143 0 q-14 0 -16.5 -7 q-2.5 -7 6.5 -17 l46 -45 l-267 0 q-13 0 -23 -10 q-10 -10 -10 -24 l0 -376 q0 -13 10 -23 q10 -10 23 -10 l605 0 l0 0 ZM615 378 l0 -346 l-559 0 l0 346 l559 0 l0 0 ZM471 189 q1 0 5 -3 q4 -3 10 -10 q7 -6 10 -10 q3 -4 3 -6 q0 -1 -0.5 -2 q-0.5 -1 -0.5 -2 q-16 -16 -35.5 -28 q-19.5 -12 -41.5 -21 q-22 -9 -44.5 -13.5 q-22.5 -4.5 -45.5 -4.5 q-23 0 -46 4.5 q-23 4.5 -45 13.5 q-22 9 -41 21 q-19 12 -35 28 q-1 1 -1.5 2 q-0.5 1 -0.5 2 q0 2 3.5 6 q3.5 4 9.5 10 q7 7 10.5 10 q3.5 3 5.5 3 q1 0 2 -0.5 q1 -0.5 2 -1.5 q15 -13 31 -23 q16 -10 33 -17 q16 -7 34 -10.5 q18 -3.5 38 -3.5 q19 0 37 3.5 q18 3.5 35 10.5 q16 7 32 17 q16 10 32 23 q1 1 2 1.5 q1 0.5 2 0.5 l0 0 ZM424 236 q1 0 5 -3.5 q4 -3.5 11 -9.5 q6 -7 9.5 -11 q3.5 -4 3.5 -5 q0 -1 -0.5 -2 q-0.5 -1 -1.5 -2 q-11 -11 -25 -20 q-14 -9 -30 -15 q-16 -7 -32.5 -10 q-16.5 -3 -32.5 -3 q-17 0 -33 3 q-16 3 -33 10 q-16 6 -29.5 15 q-13.5 9 -25.5 20 q0 1 -0.5 2 q-0.5 1 -0.5 2 q0 1 3 5 q3 4 10 11 q6 6 10 9.5 q4 3.5 5 3.5 q1 0 2 -1 q1 -1 4 -3 q2 -2 5.5 -4.5 q3.5 -2.5 7.5 -4.5 q5 -3 9.5 -5.5 q4.5 -2.5 10.5 -5.5 q5 -3 11.5 -5 q6.5 -2 13.5 -4 q8 -2 15 -3 q7 -1 15 -1 q13 0 24.5 2 q11.5 2 21.5 7 q10 4 20.5 10.5 q10.5 6.5 22.5 15.5 q1 1 2 1.5 q1 0.5 2 0.5 l0 0 ZM377 282 q2 0 6 -3 q4 -3 10 -10 q7 -6 10 -10 q3 -4 3 -6 q0 -1 -0.5 -2 q-0.5 -1 -1.5 -2 q-6 -6 -14.5 -11.5 q-8.5 -5.5 -18.5 -8.5 q-10 -4 -20 -6 q-10 -2 -20 -2 q-10 0 -20 2 q-10 2 -20 6 q-10 3 -18.5 8.5 q-8.5 5.5 -15.5 11.5 q-1 1 -1.5 2 q-0.5 1 -0.5 2 q0 2 3.5 6 q3.5 4 9.5 10 q7 7 11 10 q4 3 5 3 q1 0 2.5 -1 q1.5 -1 4.5 -3 q4 -2 8 -4 q4 -2 10 -5 q5 -2 10.5 -3 q5.5 -1 11.5 -1 q5 0 10.5 1 q5.5 1 11.5 3 q5 3 9.5 5 q4.5 2 7.5 4 q3 2 5 3 q2 1 2 1 l0 0 ZM347 316 q6 -6 9 -10 q3 -4 3 -6 q0 -3 -2.5 -5 q-2.5 -2 -7.5 -4 q-6 -2 -10.5 -3 q-4.5 -1 -7.5 -1 q-4 0 -8.5 1 q-4.5 1 -9.5 3 q-5 2 -8 4 q-3 2 -3 5 q0 2 3 6 q3 4 10 10 q6 6 10 9.5 q4 3.5 6 3.5 q1 0 5 -3.5 q4 -3.5 11 -9.5 l0 0 Z"></path></symbol><symbol id="uni-58959" viewBox="0 -20 512 512"><path d="M402 496 q12 0 17 -4.5 q5 -4.5 7 -7.5 q1 -3 0.5 -10 q-0.5 -7 -9.5 -15 l-29 -30 l237 0 q17 0 29 -12 q12 -12 12 -29 l0 -363 q0 -17 -12 -29 q-12 -12 -29 -12 l-584 0 q-17 0 -29 12 q-12 12 -12 29 l0 363 q0 17 12 29 q12 12 29 12 l237 0 l-30 30 q-8 8 -9 15 q-1 7 1 10 q1 3 6 7.5 q5 4.5 18 4.5 l138 0 l0 0 ZM256 478 q0 0 0 0 q0 0 0 0 q0 -1 1 -2.5 q1 -1.5 3 -4.5 l60 -59 l-279 0 q-10 0 -17 -7 q-7 -7 -7 -17 l0 -363 q0 -10 7 -17 q7 -7 17 -7 l584 0 q10 0 16.5 7 q6.5 7 6.5 17 l0 363 q0 10 -6.5 17 q-6.5 7 -16.5 7 l-279 0 l59 59 q3 3 4 4.5 q1 1.5 1 1.5 q0 0 -2 1 q-2 1 -6 1 l-138 0 q-4 0 -6 -0.5 q-2 -0.5 -2 -0.5 l0 0 ZM611 382 l0 -352 l-557 0 l0 352 l557 0 l0 0 ZM72 365 l0 -317 l522 0 l0 317 l-522 0 l0 0 ZM328 334 q4 0 8.5 -2.5 q4.5 -2.5 13.5 -11.5 q9 -10 11.5 -14.5 q2.5 -4.5 2.5 -7.5 q0 -6 -4 -10 q-4 -4 -12 -7 q-12 -4 -20 -4 q-8 0 -20 4 q-8 3 -12 7 q-4 4 -4 10 q0 3 2.5 7.5 q2.5 4.5 12.5 14.5 q9 9 13.5 11.5 q4.5 2.5 7.5 2.5 l0 0 ZM311 299 q0 -1 1 -1 q1 0 2 -1 q5 -2 8.5 -2.5 q3.5 -0.5 5.5 -0.5 q2 0 5.5 0.5 q3.5 0.5 9.5 2.5 q1 1 1.5 1 q0.5 0 1.5 1 q-1 1 -3 3 q-2 2 -5 6 q-4 3 -6 5 q-2 2 -4 3 q-1 -1 -3.5 -3 q-2.5 -2 -5.5 -5 q-3 -4 -5 -6 q-2 -2 -3 -3 l0 0 ZM373 289 q3 0 7.5 -2.5 q4.5 -2.5 14.5 -11.5 q9 -10 12 -14.5 q3 -4.5 3 -7.5 q0 -3 -1.5 -5.5 q-1.5 -2.5 -3.5 -4.5 q-7 -7 -16 -12.5 q-9 -5.5 -19 -9.5 q-21 -8 -42 -8 q-21 0 -41 8 q-11 4 -20 9.5 q-9 5.5 -16 12.5 q-2 2 -3 4.5 q-1 2.5 -1 5.5 q0 3 2.5 7.5 q2.5 4.5 12.5 14.5 q9 9 13.5 11.5 q4.5 2.5 7.5 2.5 q3 0 5 -1 q2 -1 7 -4 q3 -2 6.5 -4 q3.5 -2 8.5 -4 q9 -3 18 -3 q9 0 18 3 q5 2 9 4 q4 2 7 4 q5 4 7 4.5 q2 0.5 4 0.5 l0 0 ZM265 253 q6 -5 13 -9 q7 -4 15 -7 q18 -7 35.5 -7 q17.5 0 35.5 7 q8 3 15 7 q7 4 12 9 q-1 1 -3 3.5 q-2 2.5 -6 5.5 q-3 4 -5 6 q-2 2 -4 3 q0 0 -0.5 -0.5 q-0.5 -0.5 -1.5 -0.5 q-3 -3 -8 -5 q-5 -2 -10 -5 q-12 -4 -24.5 -4 q-12.5 0 -24.5 4 q-6 3 -10.5 5 q-4.5 2 -8.5 5 q0 0 -0.5 0.5 q-0.5 0.5 -1.5 0.5 q-1 -1 -3.5 -3 q-2.5 -2 -5.5 -6 q-3 -3 -5.5 -5.5 q-2.5 -2.5 -3.5 -3.5 l0 0 ZM418 244 q4 0 8 -2.5 q4 -2.5 14 -12.5 q9 -9 12 -13.5 q3 -4.5 3 -7.5 q0 -3 -1 -5.5 q-1 -2.5 -4 -4.5 q-11 -11 -25 -20.5 q-14 -9.5 -31 -15.5 q-32 -12 -66 -12 q-34 0 -66 12 q-16 6 -30 15.5 q-14 9.5 -26 20.5 q-2 2 -3 4.5 q-1 2.5 -1 5.5 q0 3 2.5 7.5 q2.5 4.5 12.5 13.5 q9 10 13.5 12.5 q4.5 2.5 7.5 2.5 q3 0 4.5 -1 q1.5 -1 5.5 -4 q3 -2 6 -4 q3 -2 7 -4 q4 -3 8.5 -5.5 q4.5 -2.5 9.5 -4.5 q5 -3 10.5 -5 q5.5 -2 12.5 -3 q18 -5 36 -3.5 q18 1.5 31 7.5 q9 4 19.5 10 q10.5 6 21.5 15 q2 1 4 1.5 q2 0.5 4 0.5 l0 0 ZM328 192 q-7 0 -15 1 q-8 1 -15 3 q-8 2 -14.5 4 q-6.5 2 -12.5 5 q-5 3 -10 5.5 q-5 2.5 -9 5.5 q-5 3 -8 5 q-3 2 -6 4 q0 0 0 0 q0 0 0 0 q-2 -1 -4 -3 q-2 -2 -5 -5 q-3 -3 -5 -5.5 q-2 -2.5 -4 -3.5 q10 -9 22 -16.5 q12 -7.5 26 -13.5 q30 -11 60.5 -11 q30.5 0 59.5 11 q14 6 26 13.5 q12 7.5 22 16.5 q-1 1 -3 3.5 q-2 2.5 -5 5.5 q-4 4 -6.5 6 q-2.5 2 -3.5 3 q-11 -8 -21.5 -14.5 q-10.5 -6.5 -20.5 -10.5 q-10 -5 -22 -7 q-12 -2 -26 -2 l0 0 ZM463 199 q4 0 8 -2.5 q4 -2.5 14 -12.5 q9 -9 12 -13.5 q3 -4.5 3 -7.5 q0 -3 -1 -5.5 q-1 -2.5 -3 -4.5 q-16 -16 -35.5 -28.5 q-19.5 -12.5 -41.5 -21.5 q-44 -17 -90.5 -17 q-46.5 0 -90.5 17 q-23 9 -42 21.5 q-19 12.5 -35 28.5 q-2 2 -3 4.5 q-1 2.5 -1 5.5 q0 3 2.5 7.5 q2.5 4.5 12.5 13.5 q9 10 13.5 12.5 q4.5 2.5 7.5 2.5 q2 0 4.5 -0.5 q2.5 -0.5 4.5 -2.5 q15 -13 29.5 -22.5 q14.5 -9.5 30.5 -15.5 q30 -13 66.5 -13 q36.5 0 66.5 13 q15 6 30 15.5 q15 9.5 29 22.5 q2 2 4.5 2.5 q2.5 0.5 4.5 0.5 l0 0 ZM328 128 q-19 0 -37.5 3.5 q-18.5 3.5 -35.5 10.5 q-16 7 -31.5 16.5 q-15.5 9.5 -30.5 22.5 q-1 -1 -3.5 -3 q-2.5 -2 -5.5 -6 q-4 -3 -6 -5.5 q-2 -2.5 -3 -3.5 q15 -14 32 -25 q17 -11 37 -19 q41 -16 84 -16 q43 0 85 16 q19 8 36.5 19 q17.5 11 31.5 25 q-1 1 -3 3.5 q-2 2.5 -5 5.5 q-4 4 -6 6 q-2 2 -4 3 q-15 -13 -30.5 -22.5 q-15.5 -9.5 -31.5 -16.5 q-16 -7 -34.5 -10.5 q-18.5 -3.5 -38.5 -3.5 l0 0 Z"></path></symbol></defs></svg>